<?xml version="1.0" encoding="UTF-8" standalone="no"?>
<!-- Generator: Adobe Illustrator 14.0.0, SVG Export Plug-In  -->

<svg
   xmlns:dc="http://purl.org/dc/elements/1.1/"
   xmlns:cc="http://creativecommons.org/ns#"
   xmlns:rdf="http://www.w3.org/1999/02/22-rdf-syntax-ns#"
   xmlns:svg="http://www.w3.org/2000/svg"
   xmlns="http://www.w3.org/2000/svg"
   xmlns:sodipodi="http://sodipodi.sourceforge.net/DTD/sodipodi-0.dtd"
   xmlns:inkscape="http://www.inkscape.org/namespaces/inkscape"
   version="1.1"
   x="0px"
   y="0px"
   width="285px"
   height="285px"
   viewBox="-0.866 -0.866 285 285"
   enable-background="new -0.866 -0.866 285 285"
   xml:space="preserve"
   id="svg2"
   inkscape:version="0.91 r13725"
   sodipodi:docname="logo-ubuntu_cof-orange-hex.svg"><metadata
     id="metadata12"><rdf:RDF><cc:Work
         rdf:about=""><dc:format>image/svg+xml</dc:format><dc:type
           rdf:resource="http://purl.org/dc/dcmitype/StillImage" /><dc:title></dc:title></cc:Work></rdf:RDF></metadata><sodipodi:namedview
     pagecolor="#ffffff"
     bordercolor="#666666"
     borderopacity="1"
     objecttolerance="10"
     gridtolerance="10"
     guidetolerance="10"
     inkscape:pageopacity="0"
     inkscape:pageshadow="2"
     inkscape:window-width="640"
     inkscape:window-height="480"
     id="namedview10"
     showgrid="false"
     inkscape:zoom="0.82807018"
     inkscape:cx="141.29237"
     inkscape:cy="142.5"
     inkscape:window-x="259"
     inkscape:window-y="170"
     inkscape:window-maximized="0"
     inkscape:current-layer="svg2" /><defs
     id="defs4" /><path
     d="m 230.32922,141.73325 c 0,48.92831 -39.66685,88.59516 -88.59766,88.59516 -48.930803,0 -88.595779,-39.66623 -88.595779,-88.59516 0,-48.932056 39.664351,-88.597657 88.595159,-88.597657 48.9308,0 88.59828,39.665601 88.59828,88.597657 z"
     id="path6"
     inkscape:connector-curvature="0"
     style="fill:#dd4814" /><path
     d="m 81.487731,129.90514 c -6.534151,0 -11.828732,5.29458 -11.828732,11.82874 0,6.53165 5.294581,11.82685 11.828732,11.82685 6.53165,0 11.826856,-5.2952 11.826856,-11.82685 0,-6.53478 -5.294581,-11.82874 -11.826856,-11.82874 z m 84.455129,53.75969 c -5.65776,3.26614 -7.59431,10.49727 -4.32943,16.15254 3.26677,5.65776 10.49728,7.59556 16.15504,4.32943 5.65589,-3.26552 7.59369,-10.49665 4.32755,-16.15379 -3.26551,-5.65526 -10.49727,-7.59369 -16.15316,-4.32818 z M 107.18051,141.732 c 0,-11.68996 5.80904,-22.01533 14.69231,-28.26756 l -8.64761,-14.485401 c -10.35162,6.916081 -18.051581,17.488991 -21.250208,29.872191 3.736212,3.04548 6.123461,7.68308 6.123461,12.88202 0,5.19769 -2.387249,9.83529 -6.124086,12.88015 3.198002,12.38444 10.898583,22.95735 21.250213,29.87281 l 8.64823,-14.48665 c -8.88327,-6.25098 -14.69231,-16.57572 -14.69231,-28.26756 z m 34.5523,-34.5523 c 18.05096,0 32.85766,13.8403 34.40978,31.48807 l 16.85764,-0.24629 c -0.8295,-13.02954 -6.52102,-24.73013 -15.26802,-33.32961 -4.49695,1.69902 -9.69214,1.44148 -14.18222,-1.15143 -4.49571,-2.5954 -7.31678,-6.973592 -8.0894,-11.724962 -4.37068,-1.209565 -8.97078,-1.869044 -13.72715,-1.869044 -8.18004,0 -15.90812,1.920302 -22.77295,5.320835 l 8.21754,14.727311 c 4.42382,-2.05845 9.35334,-3.21488 14.55478,-3.21488 z m 0,69.10522 c -5.20206,0 -10.13096,-1.15643 -14.55541,-3.21488 l -8.21879,14.72857 c 6.86546,3.39928 14.59417,5.32021 22.7742,5.32021 4.75637,0 9.35647,-0.65948 13.72778,-1.86905 0.77262,-4.75137 3.59432,-9.12956 8.09065,-11.72684 4.49008,-2.59165 9.68527,-2.8492 14.18222,-1.14955 8.74638,-8.6001 14.43789,-20.30069 15.26615,-33.33024 l -16.85765,-0.24628 c -1.55086,17.65027 -16.35819,31.48806 -34.40915,31.48806 z m 24.20818,-76.486377 c 5.65714,3.267387 12.8889,1.328957 16.15378,-4.326304 3.26677,-5.657763 1.33021,-12.888898 -4.32755,-16.155661 -5.65651,-3.265513 -12.88765,-1.327709 -16.15441,4.330054 -3.26551,5.655263 -1.32771,12.887023 4.32818,16.151911 z"
     id="path8"
     inkscape:connector-curvature="0"
     style="fill:#ffffff" /></svg>