<?xml version="1.0" encoding="UTF-8" standalone="no"?>
<!-- Generator: Adobe Illustrator 14.0.0, SVG Export Plug-In  -->

<svg
   xmlns:dc="http://purl.org/dc/elements/1.1/"
   xmlns:cc="http://creativecommons.org/ns#"
   xmlns:rdf="http://www.w3.org/1999/02/22-rdf-syntax-ns#"
   xmlns:svg="http://www.w3.org/2000/svg"
   xmlns="http://www.w3.org/2000/svg"
   xmlns:sodipodi="http://sodipodi.sourceforge.net/DTD/sodipodi-0.dtd"
   xmlns:inkscape="http://www.inkscape.org/namespaces/inkscape"
   version="1.1"
   x="0px"
   y="0px"
   width="285px"
   height="285px"
   viewBox="-0.866 -0.866 285 285"
   enable-background="new -0.866 -0.866 285 285"
   xml:space="preserve"
   id="svg2"
   inkscape:version="0.91 r13725"
   sodipodi:docname="logo-ubuntu_cof-white-hex-alpha.svg"><metadata
     id="metadata12"><rdf:RDF><cc:Work
         rdf:about=""><dc:format>image/svg+xml</dc:format><dc:type
           rdf:resource="http://purl.org/dc/dcmitype/StillImage" /></cc:Work></rdf:RDF></metadata><sodipodi:namedview
     pagecolor="#ffffff"
     bordercolor="#666666"
     borderopacity="1"
     objecttolerance="10"
     gridtolerance="10"
     guidetolerance="10"
     inkscape:pageopacity="0"
     inkscape:pageshadow="2"
     inkscape:window-width="1855"
     inkscape:window-height="1056"
     id="namedview10"
     showgrid="false"
     inkscape:zoom="0.82807018"
     inkscape:cx="107.47881"
     inkscape:cy="118.34746"
     inkscape:window-x="65"
     inkscape:window-y="24"
     inkscape:window-maximized="1"
     inkscape:current-layer="svg2"
     inkscape:snap-global="false" /><defs
     id="defs4" /><path
     d="m 141.63275,50.621917 c -50.264813,0 -91.010835,40.747246 -91.010835,91.013333 0,50.26288 40.747276,91.01083 91.012095,91.01083 50.26481,0 91.01208,-40.74859 91.01208,-91.01083 0,-50.266087 -40.74853,-91.013333 -91.01334,-91.013333 z m 31.27173,25.26922 c 1.95813,0.05082 3.9308,0.577123 5.74665,1.625417 5.81201,3.355825 7.80189,10.784554 4.44607,16.596565 -3.3539,5.809445 -10.78269,7.801281 -16.59406,4.444814 -5.81008,-3.353898 -7.80061,-10.78336 -4.44607,-16.592802 2.30713,-3.995757 6.53951,-6.185791 10.84741,-6.073994 z m -31.26922,12.956934 c 4.88605,0 9.61216,0.677609 14.102,1.92015 0.79369,4.880907 3.69192,9.377719 8.3102,12.043889 4.61249,2.66359 9.94899,2.92803 14.56855,1.18269 8.98547,8.83392 14.8314,20.85434 15.68352,34.23911 l -17.31646,0.25209 c -1.59444,-18.1289 -16.80473,-32.34655 -35.34781,-32.34655 -5.34325,0 -10.40791,1.18894 -14.95234,3.30351 l -8.44063,-15.129172 c 7.05199,-3.493243 14.98992,-5.465717 23.39297,-5.465717 z m -29.28511,8.867053 8.88336,14.880846 c -9.12545,6.42268 -15.0928,17.02937 -15.0928,29.03803 0,12.01059 5.96735,22.61663 15.0928,29.03803 l -8.88461,14.8821 c -10.63385,-7.104 -18.54382,-17.9652 -21.829009,-30.68728 3.838714,-3.12786 6.290967,-7.8922 6.290967,-13.2316 0,-5.34068 -2.452895,-10.10434 -6.290967,-13.23285 3.285831,-12.7208 11.196419,-23.58264 21.830259,-30.687276 z M 79.747738,129.48475 c 6.710365,0 12.149242,5.43882 12.149242,12.15175 0,6.70973 -5.439519,12.14924 -12.149242,12.14924 -6.712291,0 -12.15175,-5.43951 -12.15175,-12.14924 0,-6.71229 5.439459,-12.15175 12.15175,-12.15175 z m 97.234082,15.29849 17.31771,0.25209 c -0.85083,13.38477 -6.69744,25.40455 -15.68226,34.23912 -4.61956,-1.74598 -9.95606,-1.48088 -14.56856,1.18144 -4.61891,2.66809 -7.51776,7.16549 -8.31145,12.04639 -4.49048,1.24254 -9.21595,1.92016 -14.102,1.92016 -8.40305,0 -16.34285,-1.97376 -23.39547,-5.46572 l 8.44313,-15.13043 c 4.54507,2.11457 9.60845,3.30226 14.95234,3.30226 18.54308,0 33.75341,-14.21384 35.34656,-32.34531 z m -4.72951,38.30141 c 4.30779,-0.11179 8.53989,2.07749 10.84614,6.07149 3.35518,5.81136 1.36402,13.23951 -4.44607,16.59405 -5.81201,3.35518 -13.23948,1.36469 -16.59531,-4.44732 -3.3539,-5.80945 -1.36468,-13.23762 4.44732,-16.5928 1.81565,-1.0483 3.78982,-1.57462 5.74792,-1.62542 z"
     id="path6"
     style="fill:#ffffff;fill-opacity:1"
     inkscape:connector-curvature="0" /><g
     inkscape:groupmode="layer"
     id="layer4"
     inkscape:label="Layer 2" /><g
     inkscape:groupmode="layer"
     id="layer2"
     inkscape:label="Layer 1" /></svg>