<?xml version="1.0" encoding="UTF-8" standalone="no"?>
<!-- Generator: Adobe Illustrator 14.0.0, SVG Export Plug-In  -->

<svg
   xmlns:dc="http://purl.org/dc/elements/1.1/"
   xmlns:cc="http://creativecommons.org/ns#"
   xmlns:rdf="http://www.w3.org/1999/02/22-rdf-syntax-ns#"
   xmlns:svg="http://www.w3.org/2000/svg"
   xmlns="http://www.w3.org/2000/svg"
   xmlns:sodipodi="http://sodipodi.sourceforge.net/DTD/sodipodi-0.dtd"
   xmlns:inkscape="http://www.inkscape.org/namespaces/inkscape"
   version="1.1"
   x="0px"
   y="0px"
   width="285px"
   height="285px"
   viewBox="-0.866 -0.866 285 285"
   enable-background="new -0.866 -0.866 285 285"
   xml:space="preserve"
   id="svg2"
   inkscape:version="0.91 r13725"
   sodipodi:docname="launcher_bfb.svg"><metadata
     id="metadata12"><rdf:RDF><cc:Work
         rdf:about=""><dc:format>image/svg+xml</dc:format><dc:type
           rdf:resource="http://purl.org/dc/dcmitype/StillImage" /><dc:title></dc:title></cc:Work></rdf:RDF></metadata><sodipodi:namedview
     pagecolor="#ffffff"
     bordercolor="#666666"
     borderopacity="1"
     objecttolerance="10"
     gridtolerance="10"
     guidetolerance="10"
     inkscape:pageopacity="0"
     inkscape:pageshadow="2"
     inkscape:window-width="1855"
     inkscape:window-height="1056"
     id="namedview10"
     showgrid="false"
     inkscape:snap-page="true"
     inkscape:zoom="0.82807018"
     inkscape:cx="142.5"
     inkscape:cy="142.5"
     inkscape:window-x="65"
     inkscape:window-y="24"
     inkscape:window-maximized="1"
     inkscape:current-layer="svg2" /><defs
     id="defs4" /><path
     d="m 231.53704,141.73327 c 0,49.59532 -40.20763,89.80295 -89.80549,89.80295 -49.597861,0 -89.803584,-40.20699 -89.803584,-89.80295 0,-49.599132 40.205083,-89.805488 89.802954,-89.805488 49.59786,0 89.80612,40.206356 89.80612,89.805488 z"
     id="path6"
     inkscape:connector-curvature="0"
     style="fill:#ffffff" /><path
     d="m 80.66643,129.74392 c -6.623228,0 -11.98999,5.36676 -11.98999,11.98998 0,6.62069 5.366762,11.98809 11.98999,11.98809 6.620694,0 11.988092,-5.3674 11.988092,-11.98809 0,-6.62386 -5.366763,-11.98998 -11.988092,-11.98998 z m 85.60649,54.49257 c -5.7349,3.31067 -7.69784,10.64038 -4.38846,16.37273 3.3113,5.73489 10.64039,7.69912 16.37528,4.38846 5.73299,-3.31003 7.69721,-10.63975 4.38655,-16.374 -3.31003,-5.73237 -10.64038,-7.69721 -16.37337,-4.38719 z M 106.70948,141.732 c 0,-11.84933 5.88823,-22.31546 14.8926,-28.65293 l -8.7655,-14.682874 c -10.49275,7.010374 -18.297669,17.727414 -21.53991,30.279424 3.787146,3.08701 6.206941,7.78783 6.206941,13.05765 0,5.26855 -2.419795,9.96937 -6.207569,13.05574 3.2416,12.55327 11.047158,23.27031 21.539908,30.28005 l 8.76613,-14.68413 c -9.00437,-6.3362 -14.8926,-16.80171 -14.8926,-28.65293 z m 35.02333,-35.02334 c 18.29706,0 33.30561,14.02898 34.87889,31.91734 l 17.08745,-0.24965 c -0.84081,-13.20717 -6.60992,-25.06728 -15.47617,-33.78398 -4.55826,1.72218 -9.82427,1.46112 -14.37556,-1.16713 -4.55699,-2.6308 -7.41652,-7.068668 -8.19968,-11.884803 -4.43026,-1.226059 -9.09308,-1.894529 -13.91429,-1.894529 -8.29156,0 -16.125,1.946479 -23.08341,5.393367 l 8.32957,14.928095 c 4.48413,-2.08651 9.48086,-3.25871 14.7532,-3.25871 z m 0,70.04731 c -5.27298,0 -10.26907,-1.1722 -14.75384,-3.25871 l -8.33083,14.92936 c 6.95905,3.44562 14.79313,5.39274 23.08467,5.39274 4.82122,0 9.48403,-0.66847 13.91493,-1.89453 0.78316,-4.81615 3.64332,-9.25402 8.20095,-11.8867 4.55129,-2.627 9.8173,-2.88804 14.37556,-1.16523 8.86562,-8.71735 14.63472,-20.57744 15.47426,-33.78462 l -17.08745,-0.24965 c -1.57201,17.89091 -16.58119,31.91734 -34.87825,31.91734 z m 24.53821,-77.5291 c 5.73425,3.31193 13.0646,1.34708 16.374,-4.385282 3.31129,-5.734891 1.34834,-13.064605 -4.38655,-16.375903 -5.73362,-3.310031 -13.06334,-1.34581 -16.37464,4.389085 -3.31002,5.732359 -1.34581,13.062707 4.38719,16.3721 z"
     id="path8"
     inkscape:connector-curvature="0"
     style="fill:#dd4814" /><g
     inkscape:groupmode="layer"
     id="layer1"
     inkscape:label="Layer 1" /></svg>