<?xml version="1.0" encoding="UTF-8" standalone="no"?>
<!-- Created with Inkscape (http://www.inkscape.org/) -->

<svg
   xmlns:dc="http://purl.org/dc/elements/1.1/"
   xmlns:cc="http://creativecommons.org/ns#"
   xmlns:rdf="http://www.w3.org/1999/02/22-rdf-syntax-ns#"
   xmlns:svg="http://www.w3.org/2000/svg"
   xmlns="http://www.w3.org/2000/svg"
   xmlns:xlink="http://www.w3.org/1999/xlink"
   xmlns:sodipodi="http://sodipodi.sourceforge.net/DTD/sodipodi-0.dtd"
   xmlns:inkscape="http://www.inkscape.org/namespaces/inkscape"
   width="64"
   height="64"
   viewBox="0 0 64 64.000003"
   id="svg2"
   version="1.1"
   inkscape:version="0.91 r13725"
   sodipodi:docname="image-tiff.svg">
  <defs
     id="defs4">
    <linearGradient
       inkscape:collect="always"
       id="linearGradient4281">
      <stop
         style="stop-color:#000000;stop-opacity:0.30980393"
         offset="0"
         id="stop4283" />
      <stop
         style="stop-color:#000000;stop-opacity:0;"
         offset="1"
         id="stop4285" />
    </linearGradient>
    <radialGradient
       inkscape:collect="always"
       xlink:href="#Shadow"
       id="radialGradient4259"
       gradientUnits="userSpaceOnUse"
       gradientTransform="matrix(-2.0000003,-2.935184e-6,3.9135795e-6,-2.6666677,15.99984,1228.853)"
       cx="4"
       cy="42.5"
       fx="4"
       fy="42.5"
       r="1.5" />
    <linearGradient
       inkscape:collect="always"
       id="Shadow">
      <stop
         style="stop-color:#000000;stop-opacity:1;"
         offset="0"
         id="stop4186" />
      <stop
         style="stop-color:#000000;stop-opacity:0;"
         offset="1"
         id="stop4188" />
    </linearGradient>
    <linearGradient
       inkscape:collect="always"
       xlink:href="#Shadow"
       id="linearGradient4257"
       gradientUnits="userSpaceOnUse"
       gradientTransform="translate(9,1073.5196)"
       x1="24"
       y1="42"
       x2="24"
       y2="46" />
    <radialGradient
       inkscape:collect="always"
       xlink:href="#Shadow"
       id="radialGradient4255"
       gradientUnits="userSpaceOnUse"
       gradientTransform="matrix(-5.6193702e-6,2.666668,-2.0000002,-4.214526e-6,142.00027,998.1864)"
       cx="44"
       cy="42.500004"
       fx="44"
       fy="42.500004"
       r="1.5" />
    <radialGradient
       inkscape:collect="always"
       xlink:href="#Shadow"
       id="radialGradient4329-1"
       cx="16"
       cy="1081.5197"
       fx="16"
       fy="1081.5197"
       r="5"
       gradientUnits="userSpaceOnUse"
       gradientTransform="translate(33,0.9998997)" />
    <linearGradient
       inkscape:collect="always"
       xlink:href="#linearGradient4281"
       id="linearGradient4279"
       gradientUnits="userSpaceOnUse"
       gradientTransform="matrix(1,0,0,0.99991667,18,-1.9974)"
       x1="27"
       y1="28.9995"
       x2="27"
       y2="30.9995" />
    <linearGradient
       inkscape:collect="always"
       xlink:href="#linearGradient4281"
       id="linearGradient4278"
       gradientUnits="userSpaceOnUse"
       gradientTransform="matrix(1,0,0,0.99991667,18,-1.9974)"
       x1="27"
       y1="28.9995"
       x2="27"
       y2="30.9995" />
    <clipPath
       clipPathUnits="userSpaceOnUse"
       id="clipPath4290">
      <rect
         ry="1.2412964"
         y="1073.7095"
         x="39.224209"
         height="50.89587"
         width="60.826771"
         id="rect4292"
         style="opacity:1;fill:#81d4fa;fill-opacity:1;stroke:none;stroke-width:2;stroke-linecap:butt;stroke-linejoin:round;stroke-miterlimit:4;stroke-dasharray:none;stroke-opacity:1" />
    </clipPath>
    <clipPath
       clipPathUnits="userSpaceOnUse"
       id="clipPath4355">
      <path
         sodipodi:nodetypes="ccccccccccccccccc"
         inkscape:connector-curvature="0"
         id="path4357"
         d="m 45.683699,1103.1797 -0.132582,1.1214 c -0.260236,0.017 -0.571251,-0.031 -0.762351,0.5137 l -0.116012,1.348 -2.833951,1.5468 -5.76734,0.1767 -1.414214,-0.6408 -0.04419,-1.0827 -0.184869,-1.0948 c -0.08118,-0.5064 -0.270674,-0.7359 -0.483099,-0.9069 -0.278941,-0.3117 -0.741257,-0.44 -1.172562,-0.5993 1.519175,0.2937 3.022724,0.5704 4.541899,0.6785 0.266244,0.3239 0.498699,0.3944 0.72368,0.4088 0.988295,0.019 1.999223,0.14 2.949961,-0.01 0.574645,-0.1084 0.767203,-0.3962 0.867311,-0.9723 0.735057,0.089 1.426584,0.042 2.016359,-0.3259 0.603987,0.062 1.207973,-0.038 1.81196,-0.1612 z"
         style="fill:#6e4933;fill-opacity:1;fill-rule:evenodd;stroke:none;stroke-width:0.1;stroke-linecap:butt;stroke-linejoin:round;stroke-miterlimit:4;stroke-dasharray:none;stroke-opacity:1" />
    </clipPath>
    <clipPath
       clipPathUnits="userSpaceOnUse"
       id="clipPath4375">
      <path
         sodipodi:nodetypes="ccccccccccccccccc"
         inkscape:connector-curvature="0"
         id="path4377"
         d="m 45.683699,1103.1797 -0.132582,1.1214 c -0.260236,0.017 -0.571251,-0.031 -0.762351,0.5137 l -0.116012,1.348 -2.833951,1.5468 -5.76734,0.1767 -1.414214,-0.6408 -0.04419,-1.0827 -0.184869,-1.0948 c -0.08118,-0.5064 -0.270674,-0.7359 -0.483099,-0.9069 -0.278941,-0.3117 -0.741257,-0.44 -1.172562,-0.5993 1.519175,0.2937 3.022724,0.5704 4.541899,0.6785 0.266244,0.3239 0.498699,0.3944 0.72368,0.4088 0.988295,0.019 1.999223,0.14 2.949961,-0.01 0.574645,-0.1084 0.767203,-0.3962 0.867311,-0.9723 0.735057,0.089 1.426584,0.042 2.016359,-0.3259 0.603987,0.062 1.207973,-0.038 1.81196,-0.1612 z"
         style="fill:#6e4933;fill-opacity:1;fill-rule:evenodd;stroke:none;stroke-width:0.1;stroke-linecap:butt;stroke-linejoin:round;stroke-miterlimit:4;stroke-dasharray:none;stroke-opacity:1" />
    </clipPath>
    <clipPath
       clipPathUnits="userSpaceOnUse"
       id="clipPath4379">
      <path
         sodipodi:nodetypes="ccccccccccccccccc"
         inkscape:connector-curvature="0"
         id="path4381"
         d="m 45.683699,1103.1797 -0.132582,1.1214 c -0.260236,0.017 -0.571251,-0.031 -0.762351,0.5137 l -0.116012,1.348 -2.833951,1.5468 -5.76734,0.1767 -1.414214,-0.6408 -0.04419,-1.0827 -0.184869,-1.0948 c -0.08118,-0.5064 -0.270674,-0.7359 -0.483099,-0.9069 -0.278941,-0.3117 -0.741257,-0.44 -1.172562,-0.5993 1.519175,0.2937 3.022724,0.5704 4.541899,0.6785 0.266244,0.3239 0.498699,0.3944 0.72368,0.4088 0.988295,0.019 1.999223,0.14 2.949961,-0.01 0.574645,-0.1084 0.767203,-0.3962 0.867311,-0.9723 0.735057,0.089 1.426584,0.042 2.016359,-0.3259 0.603987,0.062 1.207973,-0.038 1.81196,-0.1612 z"
         style="fill:#6e4933;fill-opacity:1;fill-rule:evenodd;stroke:none;stroke-width:0.1;stroke-linecap:butt;stroke-linejoin:round;stroke-miterlimit:4;stroke-dasharray:none;stroke-opacity:1" />
    </clipPath>
    <clipPath
       clipPathUnits="userSpaceOnUse"
       id="clipPath4383">
      <path
         sodipodi:nodetypes="ccccccccccccccccc"
         inkscape:connector-curvature="0"
         id="path4385"
         d="m 45.683699,1103.1797 -0.132582,1.1214 c -0.260236,0.017 -0.571251,-0.031 -0.762351,0.5137 l -0.116012,1.348 -2.833951,1.5468 -5.76734,0.1767 -1.414214,-0.6408 -0.04419,-1.0827 -0.184869,-1.0948 c -0.08118,-0.5064 -0.270674,-0.7359 -0.483099,-0.9069 -0.278941,-0.3117 -0.741257,-0.44 -1.172562,-0.5993 1.519175,0.2937 3.022724,0.5704 4.541899,0.6785 0.266244,0.3239 0.498699,0.3944 0.72368,0.4088 0.988295,0.019 1.999223,0.14 2.949961,-0.01 0.574645,-0.1084 0.767203,-0.3962 0.867311,-0.9723 0.735057,0.089 1.426584,0.042 2.016359,-0.3259 0.603987,0.062 1.207973,-0.038 1.81196,-0.1612 z"
         style="fill:#6e4933;fill-opacity:1;fill-rule:evenodd;stroke:none;stroke-width:0.1;stroke-linecap:butt;stroke-linejoin:round;stroke-miterlimit:4;stroke-dasharray:none;stroke-opacity:1" />
    </clipPath>
    <clipPath
       clipPathUnits="userSpaceOnUse"
       id="clipPath4387">
      <path
         sodipodi:nodetypes="ccccccccccccccccc"
         inkscape:connector-curvature="0"
         id="path4389"
         d="m 45.683699,1103.1797 -0.132582,1.1214 c -0.260236,0.017 -0.571251,-0.031 -0.762351,0.5137 l -0.116012,1.348 -2.833951,1.5468 -5.76734,0.1767 -1.414214,-0.6408 -0.04419,-1.0827 -0.184869,-1.0948 c -0.08118,-0.5064 -0.270674,-0.7359 -0.483099,-0.9069 -0.278941,-0.3117 -0.741257,-0.44 -1.172562,-0.5993 1.519175,0.2937 3.022724,0.5704 4.541899,0.6785 0.266244,0.3239 0.498699,0.3944 0.72368,0.4088 0.988295,0.019 1.999223,0.14 2.949961,-0.01 0.574645,-0.1084 0.767203,-0.3962 0.867311,-0.9723 0.735057,0.089 1.426584,0.042 2.016359,-0.3259 0.603987,0.062 1.207973,-0.038 1.81196,-0.1612 z"
         style="fill:#6e4933;fill-opacity:1;fill-rule:evenodd;stroke:none;stroke-width:0.1;stroke-linecap:butt;stroke-linejoin:round;stroke-miterlimit:4;stroke-dasharray:none;stroke-opacity:1" />
    </clipPath>
    <clipPath
       clipPathUnits="userSpaceOnUse"
       id="clipPath4391">
      <path
         sodipodi:nodetypes="ccccccccccccccccc"
         inkscape:connector-curvature="0"
         id="path4393"
         d="m 45.683699,1103.5885 -0.132582,1.1214 c -0.260236,0.017 -0.571251,-0.031 -0.762351,0.5137 l -0.116012,1.348 -2.833951,1.5468 -5.76734,0.1767 -1.414214,-0.6408 -0.04419,-1.0827 -0.184869,-1.0948 c -0.08118,-0.5064 -0.270674,-0.7359 -0.483099,-0.9069 -0.278941,-0.3117 -0.741257,-0.44 -1.172562,-0.5993 1.519175,0.2937 3.022724,0.5704 4.541899,0.6785 0.266244,0.3239 0.498699,0.3944 0.72368,0.4088 0.988295,0.019 1.999223,0.14 2.949961,-0.01 0.574645,-0.1084 0.767203,-0.3962 0.867311,-0.9723 0.735057,0.089 1.426584,0.042 2.016359,-0.3259 0.603987,0.062 1.207973,-0.038 1.81196,-0.1612 z"
         style="fill:#6e4933;fill-opacity:1;fill-rule:evenodd;stroke:none;stroke-width:0.1;stroke-linecap:butt;stroke-linejoin:round;stroke-miterlimit:4;stroke-dasharray:none;stroke-opacity:1" />
    </clipPath>
    <filter
       style="color-interpolation-filters:sRGB;"
       inkscape:label="Drop Shadow"
       id="filter38261">
      <feFlood
         flood-opacity="0.498039"
         flood-color="rgb(0,0,0)"
         result="flood"
         id="feFlood38263" />
      <feComposite
         in="flood"
         in2="SourceGraphic"
         operator="in"
         result="composite1"
         id="feComposite38265" />
      <feGaussianBlur
         in="composite1"
         stdDeviation="0.1"
         result="blur"
         id="feGaussianBlur38267" />
      <feOffset
         dx="-2.77556e-17"
         dy="0.2"
         result="offset"
         id="feOffset38269" />
      <feComposite
         in="SourceGraphic"
         in2="offset"
         operator="over"
         result="composite2"
         id="feComposite38271" />
    </filter>
    <filter
       style="color-interpolation-filters:sRGB;"
       inkscape:label="Drop Shadow"
       id="filter38489">
      <feFlood
         flood-opacity="0.498039"
         flood-color="rgb(0,0,0)"
         result="flood"
         id="feFlood38491" />
      <feComposite
         in="flood"
         in2="SourceGraphic"
         operator="in"
         result="composite1"
         id="feComposite38493" />
      <feGaussianBlur
         in="composite1"
         stdDeviation="0.1"
         result="blur"
         id="feGaussianBlur38495" />
      <feOffset
         dx="-2.77556e-17"
         dy="0.2"
         result="offset"
         id="feOffset38497" />
      <feComposite
         in="SourceGraphic"
         in2="offset"
         operator="over"
         result="composite2"
         id="feComposite38499" />
    </filter>
    <filter
       style="color-interpolation-filters:sRGB;"
       inkscape:label="Drop Shadow"
       id="filter38501">
      <feFlood
         flood-opacity="0.498039"
         flood-color="rgb(0,0,0)"
         result="flood"
         id="feFlood38503" />
      <feComposite
         in="flood"
         in2="SourceGraphic"
         operator="in"
         result="composite1"
         id="feComposite38505" />
      <feGaussianBlur
         in="composite1"
         stdDeviation="0.1"
         result="blur"
         id="feGaussianBlur38507" />
      <feOffset
         dx="-2.77556e-17"
         dy="0.2"
         result="offset"
         id="feOffset38509" />
      <feComposite
         in="SourceGraphic"
         in2="offset"
         operator="over"
         result="composite2"
         id="feComposite38511" />
    </filter>
    <filter
       style="color-interpolation-filters:sRGB;"
       inkscape:label="Drop Shadow"
       id="filter38519">
      <feFlood
         flood-opacity="0.498039"
         flood-color="rgb(0,0,0)"
         result="flood"
         id="feFlood38521" />
      <feComposite
         in="flood"
         in2="SourceGraphic"
         operator="in"
         result="composite1"
         id="feComposite38523" />
      <feGaussianBlur
         in="composite1"
         stdDeviation="0.1"
         result="blur"
         id="feGaussianBlur38525" />
      <feOffset
         dx="-2.77556e-17"
         dy="0.2"
         result="offset"
         id="feOffset38527" />
      <feComposite
         in="SourceGraphic"
         in2="offset"
         operator="over"
         result="composite2"
         id="feComposite38529" />
    </filter>
    <filter
       style="color-interpolation-filters:sRGB;"
       inkscape:label="Drop Shadow"
       id="filter38531">
      <feFlood
         flood-opacity="0.498039"
         flood-color="rgb(0,0,0)"
         result="flood"
         id="feFlood38533" />
      <feComposite
         in="flood"
         in2="SourceGraphic"
         operator="in"
         result="composite1"
         id="feComposite38535" />
      <feGaussianBlur
         in="composite1"
         stdDeviation="0.1"
         result="blur"
         id="feGaussianBlur38537" />
      <feOffset
         dx="-2.77556e-17"
         dy="0.2"
         result="offset"
         id="feOffset38539" />
      <feComposite
         in="SourceGraphic"
         in2="offset"
         operator="over"
         result="composite2"
         id="feComposite38541" />
    </filter>
    <filter
       style="color-interpolation-filters:sRGB;"
       inkscape:label="Drop Shadow"
       id="filter38591">
      <feFlood
         flood-opacity="0.498039"
         flood-color="rgb(0,0,0)"
         result="flood"
         id="feFlood38593" />
      <feComposite
         in="flood"
         in2="SourceGraphic"
         operator="in"
         result="composite1"
         id="feComposite38595" />
      <feGaussianBlur
         in="composite1"
         stdDeviation="0.3"
         result="blur"
         id="feGaussianBlur38597" />
      <feOffset
         dx="-2.77556e-17"
         dy="0.2"
         result="offset"
         id="feOffset38599" />
      <feComposite
         in="SourceGraphic"
         in2="offset"
         operator="over"
         result="composite2"
         id="feComposite38601" />
    </filter>
    <filter
       style="color-interpolation-filters:sRGB;"
       inkscape:label="Drop Shadow"
       id="filter38639">
      <feFlood
         flood-opacity="0.498039"
         flood-color="rgb(0,0,0)"
         result="flood"
         id="feFlood38641" />
      <feComposite
         in="flood"
         in2="SourceGraphic"
         operator="in"
         result="composite1"
         id="feComposite38643" />
      <feGaussianBlur
         in="composite1"
         stdDeviation="0.2"
         result="blur"
         id="feGaussianBlur38645" />
      <feOffset
         dx="-2.77556e-17"
         dy="0.2"
         result="offset"
         id="feOffset38647" />
      <feComposite
         in="SourceGraphic"
         in2="offset"
         operator="over"
         result="composite2"
         id="feComposite38649" />
    </filter>
    <filter
       style="color-interpolation-filters:sRGB;"
       inkscape:label="Drop Shadow"
       id="filter38735">
      <feFlood
         flood-opacity="0.498039"
         flood-color="rgb(0,0,0)"
         result="flood"
         id="feFlood38737" />
      <feComposite
         in="flood"
         in2="SourceGraphic"
         operator="in"
         result="composite1"
         id="feComposite38739" />
      <feGaussianBlur
         in="composite1"
         stdDeviation="0.3"
         result="blur"
         id="feGaussianBlur38741" />
      <feOffset
         dx="-2.77556e-17"
         dy="0.2"
         result="offset"
         id="feOffset38743" />
      <feComposite
         in="SourceGraphic"
         in2="offset"
         operator="over"
         result="composite2"
         id="feComposite38745" />
    </filter>
    <filter
       style="color-interpolation-filters:sRGB;"
       inkscape:label="Drop Shadow"
       id="filter38747">
      <feFlood
         flood-opacity="0.498039"
         flood-color="rgb(0,0,0)"
         result="flood"
         id="feFlood38749" />
      <feComposite
         in="flood"
         in2="SourceGraphic"
         operator="in"
         result="composite1"
         id="feComposite38751" />
      <feGaussianBlur
         in="composite1"
         stdDeviation="0.3"
         result="blur"
         id="feGaussianBlur38753" />
      <feOffset
         dx="-2.77556e-17"
         dy="0.2"
         result="offset"
         id="feOffset38755" />
      <feComposite
         in="SourceGraphic"
         in2="offset"
         operator="over"
         result="composite2"
         id="feComposite38757" />
    </filter>
    <linearGradient
       inkscape:collect="always"
       xlink:href="#linearGradient4281"
       id="linearGradient4298"
       gradientUnits="userSpaceOnUse"
       gradientTransform="matrix(1,0,0,0.99991667,18,-1.9974)"
       x1="27"
       y1="28.9995"
       x2="27"
       y2="30.9995" />
    <clipPath
       clipPathUnits="userSpaceOnUse"
       id="clipPath4302">
      <rect
         ry="1.2412964"
         y="1062.2269"
         x="40.310402"
         height="50.89587"
         width="60.826771"
         id="rect4304"
         style="opacity:1;fill:#81d4fa;fill-opacity:1;stroke:none;stroke-width:2;stroke-linecap:butt;stroke-linejoin:round;stroke-miterlimit:4;stroke-dasharray:none;stroke-opacity:1" />
    </clipPath>
    <linearGradient
       inkscape:collect="always"
       xlink:href="#linearGradient4281"
       id="linearGradient4312"
       gradientUnits="userSpaceOnUse"
       gradientTransform="matrix(1,0,0,0.99991667,18,-1.9974)"
       x1="27"
       y1="28.9995"
       x2="27"
       y2="30.9995" />
    <clipPath
       clipPathUnits="userSpaceOnUse"
       id="clipPath4263">
      <rect
         ry="0.99994665"
         y="1073.5197"
         x="8"
         height="41"
         width="49"
         id="rect4265"
         style="opacity:1;fill:#81d4fa;fill-opacity:1;stroke:none;stroke-width:2;stroke-linecap:butt;stroke-linejoin:round;stroke-miterlimit:4;stroke-dasharray:none;stroke-opacity:1" />
    </clipPath>
  </defs>
  <sodipodi:namedview
     id="base"
     pagecolor="#ffffff"
     bordercolor="#666666"
     borderopacity="1.0"
     inkscape:pageopacity="0.0"
     inkscape:pageshadow="2"
     inkscape:zoom="8"
     inkscape:cx="27.069156"
     inkscape:cy="16.386162"
     inkscape:document-units="px"
     inkscape:current-layer="layer1"
     showgrid="false"
     units="px"
     inkscape:showpageshadow="false"
     borderlayer="true"
     inkscape:window-width="926"
     inkscape:window-height="1027"
     inkscape:window-x="75"
     inkscape:window-y="24"
     inkscape:window-maximized="0"
     showguides="false">
    <inkscape:grid
       type="xygrid"
       id="grid4136"
       empspacing="2" />
    <sodipodi:guide
       position="5,5.0000688"
       orientation="0,54"
       id="guide4144" />
    <sodipodi:guide
       position="59,59.000069"
       orientation="0,-54"
       id="guide4148" />
    <sodipodi:guide
       position="0,64.000069"
       orientation="64,0"
       id="guide4150" />
    <sodipodi:guide
       position="0,6.875e-05"
       orientation="0,64"
       id="guide4152" />
    <sodipodi:guide
       position="64,6.875e-05"
       orientation="-64,0"
       id="guide4154" />
    <sodipodi:guide
       position="64,64.000069"
       orientation="0,-64"
       id="guide4156" />
    <sodipodi:guide
       position="12,34.000002"
       orientation="38,0"
       id="guide4155" />
    <sodipodi:guide
       position="52,34.000002"
       orientation="-38,0"
       id="guide4159" />
  </sodipodi:namedview>
  <metadata
     id="metadata7">
    <rdf:RDF>
      <cc:Work
         rdf:about="">
        <dc:format>image/svg+xml</dc:format>
        <dc:type
           rdf:resource="http://purl.org/dc/dcmitype/StillImage" />
        <dc:title />
      </cc:Work>
    </rdf:RDF>
  </metadata>
  <g
     inkscape:label="Capa 1"
     inkscape:groupmode="layer"
     id="layer1"
     transform="translate(0,-1058.5196)">
    <path
       id="path4249"
       d="m 57,1115.5196 0,4 1,0 c 1.108,0 2,-0.892 2,-2 l 0,-2 -3,0 z"
       style="opacity:0.7;fill:url(#radialGradient4255);fill-opacity:1;stroke:none;stroke-width:2;stroke-linecap:butt;stroke-linejoin:round;stroke-miterlimit:4;stroke-dasharray:none;stroke-opacity:1"
       inkscape:connector-curvature="0" />
    <path
       id="path4251"
       d="m 8,1115.5196 0,4 49,0 0,-4 z"
       style="opacity:0.7;fill:url(#linearGradient4257);fill-opacity:1;stroke:none;stroke-width:2;stroke-linecap:butt;stroke-linejoin:round;stroke-miterlimit:4;stroke-dasharray:none;stroke-opacity:1"
       inkscape:connector-curvature="0"
       sodipodi:nodetypes="ccccc" />
    <path
       id="path4253"
       d="m 5,1115.5196 0,2 c 0,1.108 0.892,2 2,2 l 1,0 0,-4 -3,0 z"
       style="opacity:0.7;fill:url(#radialGradient4259);fill-opacity:1;stroke:none;stroke-width:2;stroke-linecap:butt;stroke-linejoin:round;stroke-miterlimit:4;stroke-dasharray:none;stroke-opacity:1"
       inkscape:connector-curvature="0" />
    <rect
       style="opacity:1;fill:#f5f5f5;fill-opacity:1;stroke:none;stroke-width:2;stroke-linecap:butt;stroke-linejoin:round;stroke-miterlimit:4;stroke-dasharray:none;stroke-opacity:1"
       id="rect4174"
       width="5"
       height="5"
       x="-7"
       y="1058.5195" />
    <rect
       y="1066.5195"
       x="-7"
       height="5"
       width="5"
       id="rect4176"
       style="opacity:1;fill:#e0e0e0;fill-opacity:1;stroke:none;stroke-width:2;stroke-linecap:butt;stroke-linejoin:round;stroke-miterlimit:4;stroke-dasharray:none;stroke-opacity:1" />
    <rect
       style="opacity:1;fill:#e0e0e0;fill-opacity:1;stroke:none;stroke-width:2;stroke-linecap:butt;stroke-linejoin:round;stroke-miterlimit:4;stroke-dasharray:none;stroke-opacity:1"
       id="rect4182"
       width="55"
       height="46.999878"
       x="5"
       y="1070.5197"
       ry="2.9999466" />
    <rect
       style="opacity:1;fill:#f5f5f5;fill-opacity:1;stroke:none;stroke-width:2;stroke-linecap:butt;stroke-linejoin:round;stroke-miterlimit:4;stroke-dasharray:none;stroke-opacity:1"
       id="rect4258"
       width="53"
       height="44.999947"
       x="6"
       y="1071.5197"
       ry="1.9999467" />
    <rect
       style="opacity:1;fill:#81d4fa;fill-opacity:1;stroke:none;stroke-width:2;stroke-linecap:butt;stroke-linejoin:round;stroke-miterlimit:4;stroke-dasharray:none;stroke-opacity:1"
       id="rect4271"
       width="49"
       height="41"
       x="8"
       y="1073.5197"
       ry="0.99994665" />
    <path
       style="opacity:1;fill:#50c96b;fill-opacity:1;stroke:none;stroke-width:2;stroke-linecap:round;stroke-linejoin:round;stroke-miterlimit:4;stroke-dasharray:none;stroke-opacity:1"
       d="m 33,1102.5821 c -4.779753,0 -14.726904,0.4307 -25,1.1812 l 0,8.3367 c 0.5482873,0.058 0.4460296,0.7321 1,0.7321 l 47,0 c 0.06645,0 0.124741,-0.018 0.1875,-0.027 0.35923,-0.1156 0.368514,-0.568 0.8125,-0.7049 l 0,-7.7719 c -8.290994,-1.1061 -18.150704,-1.7443 -24,-1.746 z"
       id="path4352"
       inkscape:connector-curvature="0" />
    <path
       style="opacity:1;fill:#2cbb4c;fill-opacity:1;stroke:none;stroke-width:2;stroke-linecap:round;stroke-linejoin:round;stroke-miterlimit:4;stroke-dasharray:none;stroke-opacity:1"
       d="m 31,1104.2517 c -3.820019,6e-4 -13.11019,0.3011 -23,0.8337 l 0,7.4521 c 0.5445538,0.074 0.4460296,0.7321 1,0.7321 l 47,0 c 0.06925,0 0.128191,-0.01 0.179688,-0.027 0.360478,-0.1241 0.347641,-0.6263 0.820312,-0.7049 l 0,-6.0164 c -8.780965,-1.4355 -19.470763,-2.2684 -26,-2.2694 z"
       id="path4346"
       inkscape:connector-curvature="0"
       sodipodi:nodetypes="cccssccccc" />
    <path
       style="opacity:1;fill:#09ad2d;fill-opacity:1;stroke:none;stroke-width:2;stroke-linecap:round;stroke-linejoin:round;stroke-miterlimit:4;stroke-dasharray:none;stroke-opacity:1"
       d="m 36,1106.5285 c -5.049715,0 -16.245387,0.5573 -28,1.4972 l 0,5.0743 c 0,0.4055 0.4460296,0.7321 1,0.7321 l 47,0 c 0.06925,0 0.127989,-0.01 0.179688,-0.027 0.36189,-0.1201 0.3546,-0.6065 0.820312,-0.7049 l 0,-5.193 c -7.603325,-0.8801 -16.255796,-1.3764 -21,-1.3785 z"
       id="path4341"
       inkscape:connector-curvature="0"
       sodipodi:nodetypes="ccsssccccc" />
    <path
       style="opacity:1;fill:#018a1f;fill-opacity:1;stroke:none;stroke-width:2;stroke-linecap:round;stroke-linejoin:round;stroke-miterlimit:4;stroke-dasharray:none;stroke-opacity:1"
       d="m 34.5,1109.1982 c -5.002986,0 -15.63669,0.8271 -26.5,2.2364 l 0,7.9587 c 0.5524999,0.067 0.4460296,1.6263 1,1.6263 l 47,0 c 0.06365,0 0.119399,-0.04 0.179688,-0.058 8.46e-4,-6e-4 0.0011,0 0.002,0 0.361097,-0.261 0.362296,-1.3044 0.818359,-1.5659 l 0,-7.9302 c -8.150418,-1.4491 -17.49133,-2.2633 -22.5,-2.2648 z"
       id="path4326"
       inkscape:connector-curvature="0"
       sodipodi:nodetypes="cccsscccccc"
       clip-path="url(#clipPath4263)" />
    <ellipse
       cy="1082.5199"
       cx="48.999969"
       id="circle4321-3"
       style="opacity:1;fill:url(#radialGradient4329-1);fill-opacity:1;stroke:none;stroke-width:2;stroke-linecap:round;stroke-linejoin:round;stroke-miterlimit:4;stroke-dasharray:none;stroke-opacity:1"
       r="5" />
    <circle
       style="opacity:1;fill:#ffee58;fill-opacity:1;stroke:none;stroke-width:2;stroke-linecap:round;stroke-linejoin:round;stroke-miterlimit:4;stroke-dasharray:none;stroke-opacity:1"
       id="path4319-5"
       cx="20.125"
       cy="1079.2697"
       r="5" />
    <g
       transform="matrix(0.80556636,0,0,0.80556636,1.652297,220.3254)"
       id="g4306">
      <path
         inkscape:connector-curvature="0"
         id="path4308"
         transform="translate(0,1058.5196)"
         d="m 48.5,23 c -1.761715,0 -3.24753,1.312947 -3.46875,3.060547 C 44.856857,26.021547 38.678755,26.001 38.5,26 c -1.209447,0 -2.217549,0.859065 -2.449219,2 L 36,28 36,28.5 36,29 36.05078,29 53,29 53,28 52.720703,28 C 52.52962,27.675811 52.255544,27.40709 51.919922,27.232422 51.972272,26.992022 51.99911,26.7461 52,26.5 52,24.5672 50.432997,23 48.5,23 Z"
         style="opacity:1;fill:url(#linearGradient4312);fill-opacity:1;stroke:none;stroke-width:2;stroke-linecap:round;stroke-linejoin:round;stroke-miterlimit:4;stroke-dasharray:none;stroke-opacity:1" />
      <path
         inkscape:connector-curvature="0"
         id="path4310"
         d="m 44.5,1078.5191 a 3.5,3.5 0 0 0 -3.46875,3.0605 2.5,2.5 0 0 0 -0.53125,-0.06 2.5,2.5 0 0 0 -2.455078,2.0469 C 36.882182,1083.78 36,1084.7943 36,1086.0191 c 0,0.1713 0.01798,0.3384 0.05078,0.5 l 16.949219,0 c 0,-0.7737 -0.440416,-1.4347 -1.080078,-1.7676 0.05242,-0.2408 0.07926,-0.486 0.08008,-0.7324 0,-1.933 -1.567003,-3.5 -3.5,-3.5 -0.274776,0 -0.539274,0.043 -0.796875,0.1035 A 3.5,3.5 0 0 0 44.5,1078.5191 Z"
         style="opacity:1;fill:#f5f5f5;fill-opacity:1;stroke:none;stroke-width:2;stroke-linecap:round;stroke-linejoin:round;stroke-miterlimit:4;stroke-dasharray:none;stroke-opacity:1" />
    </g>
    <g
       id="g4267"
       transform="translate(2.75,-0.125)">
      <path
         id="path4275"
         transform="translate(0,1058.5196)"
         d="m 48.5,23 c -1.761715,0 -3.24753,1.312947 -3.46875,3.060547 C 44.856857,26.021547 38.678755,26.001 38.5,26 c -1.209447,0 -2.217549,0.859065 -2.449219,2 L 36,28 36,28.5 36,29 36.05078,29 53,29 53,28 52.720703,28 C 52.52962,27.675811 52.255544,27.40709 51.919922,27.232422 51.972272,26.992022 51.99911,26.7461 52,26.5 52,24.5672 50.432997,23 48.5,23 Z"
         style="opacity:1;fill:url(#linearGradient4279);fill-opacity:1;stroke:none;stroke-width:2;stroke-linecap:round;stroke-linejoin:round;stroke-miterlimit:4;stroke-dasharray:none;stroke-opacity:1"
         inkscape:connector-curvature="0" />
      <path
         inkscape:connector-curvature="0"
         id="path4277"
         d="m 44.5,1078.5191 a 3.5,3.5 0 0 0 -3.46875,3.0605 2.5,2.5 0 0 0 -0.53125,-0.06 2.5,2.5 0 0 0 -2.455078,2.0469 C 36.882182,1083.78 36,1084.7943 36,1086.0191 c 0,0.1713 0.01798,0.3384 0.05078,0.5 l 16.949219,0 c 0,-0.7737 -0.440416,-1.4347 -1.080078,-1.7676 0.05242,-0.2408 0.07926,-0.486 0.08008,-0.7324 0,-1.933 -1.567003,-3.5 -3.5,-3.5 -0.274776,0 -0.539274,0.043 -0.796875,0.1035 A 3.5,3.5 0 0 0 44.5,1078.5191 Z"
         style="opacity:1;fill:#f5f5f5;fill-opacity:1;stroke:none;stroke-width:2;stroke-linecap:round;stroke-linejoin:round;stroke-miterlimit:4;stroke-dasharray:none;stroke-opacity:1" />
    </g>
    <rect
       y="1058.5195"
       x="-15"
       height="5"
       width="5"
       id="rect4332"
       style="opacity:1;fill:#81d4fa;fill-opacity:1;stroke:none;stroke-width:2;stroke-linecap:butt;stroke-linejoin:round;stroke-miterlimit:4;stroke-dasharray:none;stroke-opacity:1" />
    <rect
       style="opacity:1;fill:#2196f3;fill-opacity:1;stroke:none;stroke-width:2;stroke-linecap:butt;stroke-linejoin:round;stroke-miterlimit:4;stroke-dasharray:none;stroke-opacity:1"
       id="rect4334"
       width="5"
       height="5"
       x="-23"
       y="1058.5195" />
    <rect
       y="1066.5195"
       x="-23"
       height="5"
       width="5"
       id="rect4336"
       style="opacity:1;fill:#1e88e5;fill-opacity:1;stroke:none;stroke-width:2;stroke-linecap:butt;stroke-linejoin:round;stroke-miterlimit:4;stroke-dasharray:none;stroke-opacity:1" />
    <rect
       style="opacity:1;fill:#1976d2;fill-opacity:1;stroke:none;stroke-width:2;stroke-linecap:butt;stroke-linejoin:round;stroke-miterlimit:4;stroke-dasharray:none;stroke-opacity:1"
       id="rect4338"
       width="5"
       height="5"
       x="-23"
       y="1074.5195" />
    <rect
       style="opacity:1;fill:#ffe082;fill-opacity:1;stroke:none;stroke-width:2;stroke-linecap:butt;stroke-linejoin:round;stroke-miterlimit:4;stroke-dasharray:none;stroke-opacity:1"
       id="rect4342"
       width="5"
       height="5"
       x="-31"
       y="1058.5195" />
    <rect
       y="1066.5195"
       x="-31"
       height="5"
       width="5"
       id="rect4344"
       style="opacity:1;fill:#ffd54f;fill-opacity:1;stroke:none;stroke-width:2;stroke-linecap:butt;stroke-linejoin:round;stroke-miterlimit:4;stroke-dasharray:none;stroke-opacity:1" />
    <rect
       y="1058.5195"
       x="-39"
       height="5"
       width="5"
       id="rect4346"
       style="opacity:1;fill:#ffee58;fill-opacity:1;stroke:none;stroke-width:2;stroke-linecap:butt;stroke-linejoin:round;stroke-miterlimit:4;stroke-dasharray:none;stroke-opacity:1" />
    <rect
       y="1058.5195"
       x="-7"
       height="5"
       width="5"
       id="rect4348"
       style="opacity:1;fill:#f5f5f5;fill-opacity:1;stroke:none;stroke-width:2;stroke-linecap:butt;stroke-linejoin:round;stroke-miterlimit:4;stroke-dasharray:none;stroke-opacity:1" />
    <rect
       y="1082.5195"
       x="-23"
       height="5"
       width="5"
       id="rect4217"
       style="opacity:1;fill:#1565c0;fill-opacity:1;stroke:none;stroke-width:2;stroke-linecap:butt;stroke-linejoin:round;stroke-miterlimit:4;stroke-dasharray:none;stroke-opacity:1" />
    <g
       id="g4271"
       transform="matrix(0.80556636,0,0,0.80556636,-10.097703,210.0754)">
      <path
         style="opacity:1;fill:url(#linearGradient4278);fill-opacity:1;stroke:none;stroke-width:2;stroke-linecap:round;stroke-linejoin:round;stroke-miterlimit:4;stroke-dasharray:none;stroke-opacity:1"
         d="m 48.5,23 c -1.761715,0 -3.24753,1.312947 -3.46875,3.060547 C 44.856857,26.021547 38.678755,26.001 38.5,26 c -1.209447,0 -2.217549,0.859065 -2.449219,2 L 36,28 36,28.5 36,29 36.05078,29 53,29 53,28 52.720703,28 C 52.52962,27.675811 52.255544,27.40709 51.919922,27.232422 51.972272,26.992022 51.99911,26.7461 52,26.5 52,24.5672 50.432997,23 48.5,23 Z"
         transform="translate(0,1058.5196)"
         id="path4273"
         inkscape:connector-curvature="0" />
      <path
         style="opacity:1;fill:#f5f5f5;fill-opacity:1;stroke:none;stroke-width:2;stroke-linecap:round;stroke-linejoin:round;stroke-miterlimit:4;stroke-dasharray:none;stroke-opacity:1"
         d="m 44.5,1078.5191 a 3.5,3.5 0 0 0 -3.46875,3.0605 2.5,2.5 0 0 0 -0.53125,-0.06 2.5,2.5 0 0 0 -2.455078,2.0469 C 36.882182,1083.78 36,1084.7943 36,1086.0191 c 0,0.1713 0.01798,0.3384 0.05078,0.5 l 16.949219,0 c 0,-0.7737 -0.440416,-1.4347 -1.080078,-1.7676 0.05242,-0.2408 0.07926,-0.486 0.08008,-0.7324 0,-1.933 -1.567003,-3.5 -3.5,-3.5 -0.274776,0 -0.539274,0.043 -0.796875,0.1035 A 3.5,3.5 0 0 0 44.5,1078.5191 Z"
         id="path4276"
         inkscape:connector-curvature="0" />
    </g>
    <g
       transform="matrix(0.80556636,0,0,0.80556636,-24.472703,217.8254)"
       id="g4292"
       clip-path="url(#clipPath4302)">
      <path
         inkscape:connector-curvature="0"
         id="path4294"
         transform="translate(0,1058.5196)"
         d="m 48.5,23 c -1.761715,0 -3.24753,1.312947 -3.46875,3.060547 C 44.856857,26.021547 38.678755,26.001 38.5,26 c -1.209447,0 -2.217549,0.859065 -2.449219,2 L 36,28 36,28.5 36,29 36.05078,29 53,29 53,28 52.720703,28 C 52.52962,27.675811 52.255544,27.40709 51.919922,27.232422 51.972272,26.992022 51.99911,26.7461 52,26.5 52,24.5672 50.432997,23 48.5,23 Z"
         style="opacity:1;fill:url(#linearGradient4298);fill-opacity:1;stroke:none;stroke-width:2;stroke-linecap:round;stroke-linejoin:round;stroke-miterlimit:4;stroke-dasharray:none;stroke-opacity:1" />
      <path
         inkscape:connector-curvature="0"
         id="path4296"
         d="m 44.5,1078.5191 a 3.5,3.5 0 0 0 -3.46875,3.0605 2.5,2.5 0 0 0 -0.53125,-0.06 2.5,2.5 0 0 0 -2.455078,2.0469 C 36.882182,1083.78 36,1084.7943 36,1086.0191 c 0,0.1713 0.01798,0.3384 0.05078,0.5 l 16.949219,0 c 0,-0.7737 -0.440416,-1.4347 -1.080078,-1.7676 0.05242,-0.2408 0.07926,-0.486 0.08008,-0.7324 0,-1.933 -1.567003,-3.5 -3.5,-3.5 -0.274776,0 -0.539274,0.043 -0.796875,0.1035 A 3.5,3.5 0 0 0 44.5,1078.5191 Z"
         style="opacity:1;fill:#f5f5f5;fill-opacity:1;stroke:none;stroke-width:2;stroke-linecap:round;stroke-linejoin:round;stroke-miterlimit:4;stroke-dasharray:none;stroke-opacity:1" />
    </g>
  </g>
</svg>
