<?xml version="1.0" encoding="UTF-8" standalone="no"?>
<!-- Created using Karbon, part of Calligra: http://www.calligra.org/karbon -->

<svg
   xmlns:dc="http://purl.org/dc/elements/1.1/"
   xmlns:cc="http://creativecommons.org/ns#"
   xmlns:rdf="http://www.w3.org/1999/02/22-rdf-syntax-ns#"
   xmlns:svg="http://www.w3.org/2000/svg"
   xmlns="http://www.w3.org/2000/svg"
   xmlns:sodipodi="http://sodipodi.sourceforge.net/DTD/sodipodi-0.dtd"
   xmlns:inkscape="http://www.inkscape.org/namespaces/inkscape"
   width="38.4pt"
   height="38.4pt"
   id="svg2"
   version="1.1"
   inkscape:version="0.91 r13725"
   sodipodi:docname="text-x-lisp.svg">
  <metadata
     id="metadata15">
    <rdf:RDF>
      <cc:Work
         rdf:about="">
        <dc:format>image/svg+xml</dc:format>
        <dc:type
           rdf:resource="http://purl.org/dc/dcmitype/StillImage" />
        <dc:title />
      </cc:Work>
    </rdf:RDF>
  </metadata>
  <sodipodi:namedview
     pagecolor="#ffffff"
     bordercolor="#666666"
     borderopacity="1"
     objecttolerance="10"
     gridtolerance="10"
     guidetolerance="10"
     inkscape:pageopacity="0"
     inkscape:pageshadow="2"
     inkscape:window-width="1855"
     inkscape:window-height="1056"
     id="namedview13"
     showgrid="false"
     inkscape:zoom="4.9166665"
     inkscape:cx="-6.9361849"
     inkscape:cy="15.972728"
     inkscape:window-x="65"
     inkscape:window-y="24"
     inkscape:window-maximized="1"
     inkscape:current-layer="layer1" />
  <defs
     id="defs4" />
  <g
     id="layer1">
    <path
       id="rect4090"
       transform="translate(7, 4)"
       fill="#ecf0f1"
       d="M0 0L0 40L34 40L34 11L23 0Z" />
    <path
       id="path4151"
       transform="matrix(3.54331 0 0 3.54331 29.9999 3.99986)"
       fill="#ffffff"
       opacity="0.50000000000"
       d="M0 0L0 3.10449L3.10446 3.10449Z" />
    <path
       style="fill:#7f8c8d;fill-opacity:1;fill-rule:evenodd;stroke:none;stroke-width:1px;stroke-linecap:butt;stroke-linejoin:miter;stroke-opacity:1"
       d="m 13.884747,20.942374 0,1.264407 0,8.850847 2.528813,0 0,-5.68983 2.528814,3.161017 2.528813,-3.161017 0,5.68983 2.528814,0 0,-8.850847 0,-1.264407 -2.528814,0 -2.528813,3.79322 -2.528814,-3.79322 z m 15.172881,0 0,5.057627 -2.528813,0 3.79322,5.057627 3.79322,-5.057627 -2.528813,0 0,-5.057627 z"
       id="path8125"
       inkscape:connector-curvature="0"
       sodipodi:nodetypes="ccccccccccccccccccccccc" />
    <path
       style="color:#000000;text-decoration:none;text-decoration-line:none;text-decoration-style:solid;text-decoration-color:#000000;clip-rule:nonzero;display:inline;overflow:visible;visibility:visible;opacity:1;isolation:auto;mix-blend-mode:normal;color-interpolation:sRGB;color-interpolation-filters:linearRGB;solid-color:#000000;solid-opacity:1;fill:#7f8c8d;fill-opacity:1;fill-rule:nonzero;stroke:none;stroke-width:1;stroke-linecap:butt;stroke-linejoin:miter;stroke-miterlimit:4;stroke-dasharray:none;stroke-dashoffset:0;stroke-opacity:1;color-rendering:auto;image-rendering:auto;shape-rendering:auto;text-rendering:auto;enable-background:accumulate"
       d="m 12.62034,17.149153 c -0.700479,0 -1.264407,0.563928 -1.264407,1.264407 l 0,15.172882 c 0,0.700479 0.563928,1.264407 1.264407,1.264407 l 22.759322,0 c 0.700479,0 1.264407,-0.563928 1.264407,-1.264407 l 0,-15.172882 c 0,-0.700479 -0.563928,-1.264407 -1.264407,-1.264407 z m 1.264407,1.264407 20.230508,0 c 0.700479,0 1.264407,0.563928 1.264407,1.264407 l 0,12.644068 c 0,0.700479 -0.563928,1.264407 -1.264407,1.264407 l -20.230508,0 c -0.700479,0 -1.264407,-0.563928 -1.264407,-1.264407 l 0,-12.644068 c 0,-0.700479 0.563928,-1.264407 1.264407,-1.264407 z"
       id="rect8137"
       inkscape:connector-curvature="0"
       sodipodi:nodetypes="ssssssssssssssssss" />
    <path
       id="path4252"
       transform="matrix(3.54331 0 0 3.54331 29.9999 15)"
       fill="#000000"
       fill-opacity="0.11764705882"
       d="M3.10446 3.10449L3.10446 0L0 0Z" />
  </g>
</svg>
