<?xml version="1.0" encoding="UTF-8" standalone="no"?>
<!-- Created using Karbon, part of Calligra: http://www.calligra.org/karbon -->

<svg
   xmlns:dc="http://purl.org/dc/elements/1.1/"
   xmlns:cc="http://creativecommons.org/ns#"
   xmlns:rdf="http://www.w3.org/1999/02/22-rdf-syntax-ns#"
   xmlns:svg="http://www.w3.org/2000/svg"
   xmlns="http://www.w3.org/2000/svg"
   xmlns:sodipodi="http://sodipodi.sourceforge.net/DTD/sodipodi-0.dtd"
   xmlns:inkscape="http://www.inkscape.org/namespaces/inkscape"
   width="38.4pt"
   height="38.4pt"
   id="svg2"
   version="1.1"
   inkscape:version="0.91 r13725"
   sodipodi:docname="imagemagick.svg">
  <metadata
     id="metadata16">
    <rdf:RDF>
      <cc:Work
         rdf:about="">
        <dc:format>image/svg+xml</dc:format>
        <dc:type
           rdf:resource="http://purl.org/dc/dcmitype/StillImage" />
        <dc:title />
      </cc:Work>
    </rdf:RDF>
  </metadata>
  <sodipodi:namedview
     pagecolor="#ffffff"
     bordercolor="#666666"
     borderopacity="1"
     objecttolerance="10"
     gridtolerance="10"
     guidetolerance="10"
     inkscape:pageopacity="0"
     inkscape:pageshadow="2"
     inkscape:window-width="1855"
     inkscape:window-height="1056"
     id="namedview14"
     showgrid="false"
     inkscape:showpageshadow="false"
     borderlayer="true"
     inkscape:zoom="9.8333329"
     inkscape:cx="23.053276"
     inkscape:cy="23.009818"
     inkscape:window-x="65"
     inkscape:window-y="24"
     inkscape:window-maximized="1"
     inkscape:current-layer="g4202">
    <sodipodi:guide
       position="9.5367432e-07,48.000001"
       orientation="47.999999,0"
       id="guide4074" />
    <sodipodi:guide
       position="9.5367432e-07,1.9073486e-06"
       orientation="0,47.999999"
       id="guide4076" />
    <sodipodi:guide
       position="48,1.9073486e-06"
       orientation="-47.999999,0"
       id="guide4078" />
    <sodipodi:guide
       position="48,48.000001"
       orientation="0,-47.999999"
       id="guide4080" />
    <sodipodi:guide
       position="4.000001,44.000001"
       orientation="39.999999,0"
       id="guide4082" />
    <sodipodi:guide
       position="4.000001,4.0000019"
       orientation="0,39.999999"
       id="guide4084" />
    <sodipodi:guide
       position="44,4.0000019"
       orientation="-39.999999,0"
       id="guide4086" />
    <sodipodi:guide
       position="44,44.000001"
       orientation="0,-39.999999"
       id="guide4088" />
    <sodipodi:guide
       position="8.000001,40.000001"
       orientation="31.999999,0"
       id="guide4094" />
    <sodipodi:guide
       position="8.000001,8.0000019"
       orientation="0,31.999999"
       id="guide4096" />
    <sodipodi:guide
       position="40,8.0000019"
       orientation="-31.999999,0"
       id="guide4098" />
    <sodipodi:guide
       position="40,40.000001"
       orientation="0,-31.999999"
       id="guide4100" />
    <sodipodi:guide
       position="15.000001,33.000001"
       orientation="17.999999,0"
       id="guide4104" />
    <sodipodi:guide
       position="15.000001,15.000002"
       orientation="0,17.999999"
       id="guide4106" />
    <sodipodi:guide
       position="33,15.000002"
       orientation="-17.999999,0"
       id="guide4108" />
    <sodipodi:guide
       position="33,33.000001"
       orientation="0,-17.999999"
       id="guide4110" />
    <sodipodi:guide
       position="15.000001,24.000002"
       orientation="9,0"
       id="guide4120" />
    <sodipodi:guide
       position="15.000001,15.000002"
       orientation="0,17.999999"
       id="guide4122" />
    <sodipodi:guide
       position="33,15.000002"
       orientation="-9,0"
       id="guide4124" />
    <sodipodi:guide
       position="33,24.000002"
       orientation="0,-17.999999"
       id="guide4126" />
  </sodipodi:namedview>
  <defs
     id="defs4">
    <linearGradient
       gradientTransform="matrix(0,-1,1,0,-1.5e-6,47.999998)"
       gradientUnits="userSpaceOnUse"
       x2="47"
       x1="1"
       id="linearGradient3764">
      <stop
         id="stop4162"
         style="stop-color:#e4e4e4;stop-opacity:1" />
      <stop
         id="stop4164"
         style="stop-color:#eee;stop-opacity:1"
         offset="1" />
    </linearGradient>
    <clipPath
       id="clipPath-195302748">
      <g
         id="g4167"
         transform="translate(0,-1004.3622)">
        <path
           id="path4169"
           style="fill:#1890d0"
           transform="matrix(15.333333,0,0,11.5,414.99999,878.8622)"
           d="m -24 13 c 0 1.105 -0.672 2 -1.5 2 -0.828 0 -1.5 -0.895 -1.5 -2 0 -1.105 0.672 -2 1.5 -2 0.828 0 1.5 0.895 1.5 2 z" />
      </g>
    </clipPath>
    <clipPath
       id="clipPath-205582253">
      <g
         id="g4172"
         transform="translate(0,-1004.3622)">
        <path
           id="path4174"
           style="fill:#1890d0"
           transform="matrix(15.333333,0,0,11.5,414.99999,878.8622)"
           d="m -24 13 c 0 1.105 -0.672 2 -1.5 2 -0.828 0 -1.5 -0.895 -1.5 -2 0 -1.105 0.672 -2 1.5 -2 0.828 0 1.5 0.895 1.5 2 z" />
      </g>
    </clipPath>
  </defs>
  <g
     id="g4231"
     transform="translate(-3.9329782,-49.128257)">
    <g
       id="g4254"
       transform="translate(-0.07920593,-1.457408)">
      <g
         transform="matrix(1.4786882,0,0,1.4786882,-8.2147228,38.356446)"
         id="g4188">
        <g
           id="g4190"
           clip-path="url(#clipPath-195302748)">
          <g
             transform="translate(1,1)"
             id="g4192">
            <g
               style="opacity:0.1"
               id="g4194">
              <!-- color: #eeeeee -->
              <g
                 id="g4196">
                <path
                   inkscape:connector-curvature="0"
                   d="m 26.359,12.09 c -2.48,0.32 -5.145,1.527 -7.313,5.098 -4.957,8.16 -4.605,11 -5.395,11.918 -0.793,0.914 -2.93,1.41 -2.621,2.449 0.309,1.035 0.621,0.902 0.621,0.902 0,0 3.121,4.52 12.172,3.348 9.05,-1.172 10.305,-3.082 10.223,-4.03 -0.082,-0.949 -1.992,-1.641 -1.992,-1.641 0,0 -1.414,-4.984 -1.051,-7.03 0.363,-2.047 1.742,-5.03 3.105,-5.672 1.359,-0.648 2.039,2.168 2.742,1.473 0.699,-0.695 -1.18,-6.06 -3.258,-6.102 -1.164,-0.023 -4.059,-1.121 -7.234,-0.707"
                   style="fill:#000000;fill-opacity:1;fill-rule:nonzero;stroke:none"
                   id="path4198" />
              </g>
            </g>
          </g>
        </g>
      </g>
      <g
         transform="matrix(1.4786882,0,0,1.4786882,-8.2142649,38.356446)"
         id="g4200">
        <g
           id="g4202"
           clip-path="url(#clipPath-205582253)">
          <!-- color: #eeeeee -->
          <g
             id="g4204">
            <path
               inkscape:connector-curvature="0"
               d="m 22.285,20.457 2.656,-0.141 1.406,-2.113 0.965,2.41 2.559,0.914 -1.973,1.574 -0.043,2.555 -2.094,-1.34 -2.801,0.902 0.785,-2.477 m -1.461,-2.285"
               style="fill:#ff7036;fill-opacity:1;fill-rule:nonzero;stroke:none"
               id="path4206" />
            <path
               inkscape:connector-curvature="0"
               d="m 21.887,28.14 2.496,-0.918 0.715,-2.438 1.633,2.01 2.715,0.117 -1.414,2.086 0.715,2.453 -2.395,-0.656 -2.406,1.691 0.016,-2.598 m -2.074,-1.746"
               style="fill:#ffe236;fill-opacity:1;fill-rule:nonzero;stroke:none"
               id="path4208" />
            <path
               inkscape:connector-curvature="0"
               d="m 15.426,24.91 2.652,0.199 1.66,-1.922 0.652,2.512 2.422,1.234 -2.156,1.309 -0.367,2.527 -1.902,-1.59 -2.895,0.539 1.09,-2.355 M 15.426,24.91"
               style="fill:#ff2fbf;fill-opacity:1;fill-rule:nonzero;stroke:none"
               id="path4210" />
            <path
               inkscape:connector-curvature="0"
               d="m 26.359,12.09 c -2.48,0.32 -5.145,1.527 -7.313,5.098 -4.957,8.16 -4.605,11 -5.395,11.918 -0.793,0.914 -2.93,1.41 -2.621,2.449 0.309,1.035 0.621,0.902 0.621,0.902 0,0 3.121,4.52 12.172,3.348 9.05,-1.172 10.305,-3.082 10.223,-4.03 -0.082,-0.949 -1.992,-1.641 -1.992,-1.641 0,0 -1.414,-4.984 -1.051,-7.03 0.363,-2.047 1.742,-5.03 3.105,-5.672 1.359,-0.648 2.039,2.168 2.742,1.473 0.699,-0.695 -1.18,-6.06 -3.258,-6.102 -1.164,-0.023 -4.059,-1.121 -7.234,-0.707 m 0.008,6.848 0.691,2.043 2.098,0.594 -1.773,1.262 0.078,2.145 -1.773,-1.262 -2.09,0.73 0.672,-2.02 -1.348,-1.695 2.203,-0.02 m -5.84,4.227 0.074,1.48 1.324,0.793 -1.43,0.516 -0.359,1.465 -0.973,-1.141 -1.523,0.098 0.816,-1.234 -0.582,-1.387 1.477,0.383 m 7.082,-0.664 1.418,1.898 2.395,-0.094 -1.391,1.922 0.816,2.188 -2.297,-0.711 -1.887,1.457 -0.016,-2.359 -1.988,-1.297 2.277,-0.746 m 0.672,-2.258"
               style="fill:#2d2d2d;fill-opacity:1;fill-rule:nonzero;stroke:none"
               id="path4212" />
          </g>
        </g>
      </g>
    </g>
  </g>
</svg>
