<?xml version="1.0" encoding="UTF-8" standalone="no"?>
<!-- Created with Inkscape (http://www.inkscape.org/) -->

<svg
   xmlns:dc="http://purl.org/dc/elements/1.1/"
   xmlns:cc="http://creativecommons.org/ns#"
   xmlns:rdf="http://www.w3.org/1999/02/22-rdf-syntax-ns#"
   xmlns:svg="http://www.w3.org/2000/svg"
   xmlns="http://www.w3.org/2000/svg"
   xmlns:sodipodi="http://sodipodi.sourceforge.net/DTD/sodipodi-0.dtd"
   xmlns:inkscape="http://www.inkscape.org/namespaces/inkscape"
   width="48"
   height="48"
   id="svg2"
   version="1.1"
   inkscape:version="0.91 r"
   sodipodi:docname="applications-education-school.svg">
  <defs
     id="defs4" />
  <sodipodi:namedview
     id="base"
     pagecolor="#ffffff"
     bordercolor="#666666"
     borderopacity="1.0"
     inkscape:pageopacity="0.0"
     inkscape:pageshadow="2"
     inkscape:zoom="1"
     inkscape:cx="15.654826"
     inkscape:cy="35.775536"
     inkscape:document-units="px"
     inkscape:current-layer="layer1"
     showgrid="false"
     fit-margin-top="0"
     fit-margin-left="0"
     fit-margin-right="0"
     fit-margin-bottom="0"
     inkscape:window-width="1600"
     inkscape:window-height="843"
     inkscape:window-x="-4"
     inkscape:window-y="31"
     inkscape:window-maximized="1"
     showguides="false">
    <sodipodi:guide
       position="8.9999928,39"
       orientation="30,0"
       id="guide3276" />
    <sodipodi:guide
       position="8.9999928,9"
       orientation="0,30"
       id="guide3278" />
    <sodipodi:guide
       position="38.999993,9"
       orientation="-30,0"
       id="guide3280" />
    <sodipodi:guide
       position="38.999993,39"
       orientation="0,-30"
       id="guide3282" />
    <sodipodi:guide
       position="8.9999928,39"
       orientation="11,0"
       id="guide3292" />
    <sodipodi:guide
       position="8.9999928,28"
       orientation="0,13"
       id="guide3294" />
    <sodipodi:guide
       position="21.999993,28"
       orientation="-11,0"
       id="guide3296" />
    <sodipodi:guide
       position="21.999993,39"
       orientation="0,-13"
       id="guide3298" />
  </sodipodi:namedview>
  <metadata
     id="metadata7">
    <rdf:RDF>
      <cc:Work
         rdf:about="">
        <dc:format>image/svg+xml</dc:format>
        <dc:type
           rdf:resource="http://purl.org/dc/dcmitype/StillImage" />
        <dc:title></dc:title>
      </cc:Work>
    </rdf:RDF>
  </metadata>
  <g
     inkscape:label="Capa 1"
     inkscape:groupmode="layer"
     id="layer1"
     transform="translate(-180.23661,-689.8125)">
    <rect
       y="693.8125"
       x="182.23662"
       height="40"
       width="44.000008"
       id="rect813"
       style="fill:#284020;fill-opacity:1;stroke:none" />
    <path
       style="fill:#906d36;fill-opacity:1;stroke:none"
       d="M 2 4 L 2 44 L 46 44 L 46 4 L 2 4 z M 5 7 L 43 7 L 43 41 L 5 41 L 5 7 z "
       transform="translate(180.23661,689.8125)"
       id="rect4145" />
    <g
       style="font-style:normal;font-weight:normal;font-size:10.64587402px;line-height:125%;font-family:sans-serif;letter-spacing:0px;word-spacing:0px;fill:#ffffff;fill-opacity:1;stroke:none;stroke-width:1px;stroke-linecap:butt;stroke-linejoin:miter;stroke-opacity:1"
       id="text4150">
      <path
         d="m 193.83181,712.80727 q -0.12996,0 -0.40546,-0.0416 -0.27031,-0.0468 -0.38986,-0.0468 l -1.52827,-0.005 q -0.19753,0 -0.59779,0.052 -0.40026,0.0468 -0.60299,0.0468 -0.0572,0 -0.16634,-0.0208 -0.10916,-0.0208 -0.16634,-0.0208 -0.46784,0 -0.63418,-0.37946 -0.10396,-0.23912 -0.10396,-0.73814 0,-0.97206 0.43144,-1.62704 0.33269,-0.50422 1.07603,-1.00844 0.70175,-0.46264 1.39831,-0.92008 0.82131,-0.59779 0.82131,-1.35673 0,-0.19753 -0.32748,-0.38986 -0.32749,-0.19753 -0.63938,-0.19753 -0.55101,0 -1.16959,0.49383 -0.61339,0.48863 -0.84211,0.48863 -0.2755,0 -0.48343,-0.13516 -0.25991,-0.16634 -0.25991,-0.46263 0,-0.31709 0.25991,-0.54581 0.62898,-0.55621 1.09682,-0.81092 0.67576,-0.36907 1.39831,-0.36907 0.89928,0 1.62183,0.47303 0.82651,0.54061 0.82651,1.41391 0,0.88369 -0.40546,1.50227 -0.31708,0.49383 -1.00324,0.96167 -0.64978,0.41065 -1.29955,0.81611 -0.98765,0.64458 -1.06043,1.47109 0.2859,-0.0364 0.84211,-0.0832 1.10721,-0.0572 1.58544,-0.0572 0.44705,0 0.88369,0.19233 0.54061,0.23911 0.54061,0.61338 0,0.27031 -0.19233,0.47304 -0.20273,0.21832 -0.50422,0.21832 z"
         style="font-style:normal;font-variant:normal;font-weight:bold;font-stretch:normal;font-family:'Comic Sans MS';-inkscape-font-specification:'Comic Sans MS Bold';fill:#ffffff;fill-opacity:1"
         id="path4155" />
      <path
         d="m 200.22557,710.07823 q -0.0624,0 -0.18713,-0.0156 -0.11956,-0.0208 -0.18714,-0.0208 -0.14035,0 -0.41585,0.0104 -0.27031,0.005 -0.41586,0.005 0.005,0.17674 0,0.46264 -0.005,0.36387 -0.005,0.45744 0,0.26511 -0.19233,0.44185 -0.19233,0.17154 -0.47823,0.17154 -0.2859,0 -0.47823,-0.17154 -0.19234,-0.17674 -0.19234,-0.44185 0,0.0676 -0.0104,-0.89409 -0.38987,0.0208 -0.68097,0.0208 -0.36907,0 -0.65497,-0.13516 -0.35867,-0.17154 -0.35867,-0.48862 0,-0.40546 0.33268,-0.53022 0.18194,-0.0676 0.68096,-0.0676 0.2963,0 0.68097,-0.0208 0,-0.052 -0.005,-0.20792 -0.005,-0.15595 -0.005,-0.25472 0,-1.03963 0.70175,-1.03963 0.27551,0 0.47824,0.17154 0.20273,0.16634 0.20273,0.42625 0,0.0832 -0.0208,0.25991 -0.0156,0.17154 -0.0156,0.25991 l 0.005,0.36387 q 0.11956,0.005 0.18193,0.005 0.10397,0 0.31189,-0.0104 0.21313,-0.0104 0.32229,-0.0104 1.06043,0 1.06043,0.62898 0,0.24952 -0.17674,0.43145 -0.19233,0.19234 -0.47823,0.19234 z"
         style="font-style:normal;font-variant:normal;font-weight:bold;font-stretch:normal;font-family:'Comic Sans MS';-inkscape-font-specification:'Comic Sans MS Bold';fill:#ffffff;fill-opacity:1"
         id="path4157" />
      <path
         d="m 206.84805,712.80727 q -0.12995,0 -0.40546,-0.0416 -0.2703,-0.0468 -0.38986,-0.0468 l -1.52826,-0.005 q -0.19754,0 -0.5978,0.052 -0.40026,0.0468 -0.60298,0.0468 -0.0572,0 -0.16635,-0.0208 -0.10916,-0.0208 -0.16634,-0.0208 -0.46783,0 -0.63418,-0.37946 -0.10396,-0.23912 -0.10396,-0.73814 0,-0.97206 0.43145,-1.62704 0.33268,-0.50422 1.07602,-1.00844 0.70176,-0.46264 1.39831,-0.92008 0.82132,-0.59779 0.82132,-1.35673 0,-0.19753 -0.32749,-0.38986 -0.32748,-0.19753 -0.63938,-0.19753 -0.551,0 -1.16959,0.49383 -0.61338,0.48863 -0.8421,0.48863 -0.27551,0 -0.48343,-0.13516 -0.25991,-0.16634 -0.25991,-0.46263 0,-0.31709 0.25991,-0.54581 0.62898,-0.55621 1.09681,-0.81092 0.67577,-0.36907 1.39831,-0.36907 0.89929,0 1.62184,0.47303 0.82651,0.54061 0.82651,1.41391 0,0.88369 -0.40546,1.50227 -0.31709,0.49383 -1.00325,0.96167 -0.64977,0.41065 -1.29954,0.81611 -0.98766,0.64458 -1.06043,1.47109 0.2859,-0.0364 0.8421,-0.0832 1.10721,-0.0572 1.58545,-0.0572 0.44704,0 0.88369,0.19233 0.54061,0.23911 0.54061,0.61338 0,0.27031 -0.19233,0.47304 -0.20273,0.21832 -0.50423,0.21832 z"
         style="font-style:normal;font-variant:normal;font-weight:bold;font-stretch:normal;font-family:'Comic Sans MS';-inkscape-font-specification:'Comic Sans MS Bold';fill:#ffffff;fill-opacity:1"
         id="path4159" />
      <path
         d="m 212.90393,708.81507 -2.43274,0 q -0.11956,0 -0.35348,0.0104 -0.23392,0.0104 -0.35348,0.0104 -0.2911,0 -0.47823,-0.17674 -0.18713,-0.17673 -0.18713,-0.43145 0,-0.62898 1.02924,-0.62898 0.0624,0 0.18713,0.005 l 0.16114,0 2.42755,0.005 q 0.2911,0 0.47824,0.17154 0.19233,0.17154 0.19233,0.43145 0,0.25991 -0.19233,0.43145 -0.18714,0.17154 -0.47824,0.17154 z m -0.0728,2.53671 q -0.34308,0 -1.02924,-0.0104 -0.68616,-0.0156 -1.02924,-0.0156 -0.15595,0 -0.46784,0.0208 -0.30669,0.0156 -0.46263,0.0156 -0.2963,0 -0.49383,-0.16634 -0.19233,-0.16635 -0.19233,-0.43665 0,-0.56141 0.63937,-0.60299 0.54581,-0.0364 0.97726,-0.0364 0.34308,0 1.02924,0.0156 0.68616,0.0104 1.02924,0.0104 0.2911,0 0.47823,0.17154 0.19233,0.17154 0.19233,0.43145 0,0.25991 -0.19233,0.43145 -0.18713,0.17154 -0.47823,0.17154 z"
         style="font-style:normal;font-variant:normal;font-weight:bold;font-stretch:normal;font-family:'Comic Sans MS';-inkscape-font-specification:'Comic Sans MS Bold';fill:#ffffff;fill-opacity:1"
         id="path4161" />
    </g>
  </g>
</svg>
