<?xml version="1.0" encoding="UTF-8" standalone="no"?>
<!-- Created using Karbon, part of Calligra: http://www.calligra.org/karbon -->

<svg
   xmlns:dc="http://purl.org/dc/elements/1.1/"
   xmlns:cc="http://creativecommons.org/ns#"
   xmlns:rdf="http://www.w3.org/1999/02/22-rdf-syntax-ns#"
   xmlns:svg="http://www.w3.org/2000/svg"
   xmlns="http://www.w3.org/2000/svg"
   xmlns:sodipodi="http://sodipodi.sourceforge.net/DTD/sodipodi-0.dtd"
   xmlns:inkscape="http://www.inkscape.org/namespaces/inkscape"
   width="38.4pt"
   height="38.4pt"
   id="svg2"
   version="1.1"
   inkscape:version="0.91 r"
   sodipodi:docname="gparted.svg">
  <metadata
     id="metadata67">
    <rdf:RDF>
      <cc:Work
         rdf:about="">
        <dc:format>image/svg+xml</dc:format>
        <dc:type
           rdf:resource="http://purl.org/dc/dcmitype/StillImage" />
        <dc:title></dc:title>
      </cc:Work>
    </rdf:RDF>
  </metadata>
  <sodipodi:namedview
     pagecolor="#ffffff"
     bordercolor="#666666"
     borderopacity="1"
     objecttolerance="10"
     gridtolerance="10"
     guidetolerance="10"
     inkscape:pageopacity="0"
     inkscape:pageshadow="2"
     inkscape:window-width="1600"
     inkscape:window-height="843"
     id="namedview65"
     showgrid="false"
     inkscape:zoom="1"
     inkscape:cx="24.000001"
     inkscape:cy="23.449157"
     inkscape:window-x="-4"
     inkscape:window-y="31"
     inkscape:window-maximized="1"
     inkscape:current-layer="svg2" />
  <defs
     id="defs4">
    <linearGradient
       id="gradient0"
       gradientUnits="userSpaceOnUse"
       x1="3"
       y1="46.593752"
       x2="3"
       y2="43.062502"
       spreadMethod="pad"
       gradientTransform="matrix(1.04425,0,0,1.04425,2,42.3126)">
      <stop
         stop-color="#ffffff"
         offset="0.00000000000"
         stop-opacity="1.00000000000"
         id="stop7" />
      <stop
         stop-color="#ffffff"
         offset="1.00000000000"
         stop-opacity="0.00000000000"
         id="stop9" />
    </linearGradient>
    <linearGradient
       id="gradient1"
       gradientUnits="userSpaceOnUse"
       x1="3"
       y1="46.593752"
       x2="3"
       y2="43.062502"
       spreadMethod="pad"
       gradientTransform="matrix(1.04425,0,0,1.04425,42.3125,42.3126)">
      <stop
         stop-color="#ffffff"
         offset="0.00000000000"
         stop-opacity="1.00000000000"
         id="stop12" />
      <stop
         stop-color="#ffffff"
         offset="1.00000000000"
         stop-opacity="0.00000000000"
         id="stop14" />
    </linearGradient>
    <linearGradient
       id="gradient2"
       gradientUnits="userSpaceOnUse"
       x1="3"
       y1="46.593752"
       x2="3"
       y2="43.062502"
       spreadMethod="pad"
       gradientTransform="matrix(1.04425,0,0,1.04425,2,2.31243)">
      <stop
         stop-color="#ffffff"
         offset="0.00000000000"
         stop-opacity="1.00000000000"
         id="stop17" />
      <stop
         stop-color="#ffffff"
         offset="1.00000000000"
         stop-opacity="0.00000000000"
         id="stop19" />
    </linearGradient>
    <linearGradient
       id="gradient3"
       gradientUnits="userSpaceOnUse"
       x1="3"
       y1="46.593752"
       x2="3"
       y2="43.062502"
       spreadMethod="pad"
       gradientTransform="matrix(1.04425,0,0,1.04425,42.3125,2.31243)">
      <stop
         stop-color="#ffffff"
         offset="0.00000000000"
         stop-opacity="1.00000000000"
         id="stop22" />
      <stop
         stop-color="#ffffff"
         offset="1.00000000000"
         stop-opacity="0.00000000000"
         id="stop24" />
    </linearGradient>
    <linearGradient
       id="gradient4"
       gradientTransform="matrix(1.331956,0,0,0.79917361,14,1.0000019)"
       gradientUnits="userSpaceOnUse"
       x1="-25.421078"
       y1="1378.3175"
       x2="-25.421078"
       y2="1375.6628"
       spreadMethod="pad">
      <stop
         stop-color="#ffd70c"
         offset="0.00000000000"
         stop-opacity="1.00000000000"
         id="stop27" />
      <stop
         stop-color="#fff054"
         offset="1.00000000000"
         stop-opacity="1.00000000000"
         id="stop29" />
    </linearGradient>
    <linearGradient
       id="gradient5"
       gradientTransform="matrix(1.331929,0,0,0.79915724,21,1.0000019)"
       gradientUnits="userSpaceOnUse"
       x1="-25.420557"
       y1="1378.3457"
       x2="-25.420557"
       y2="1375.691"
       spreadMethod="pad">
      <stop
         stop-color="#ffd70c"
         offset="0.00000000000"
         stop-opacity="1.00000000000"
         id="stop32" />
      <stop
         stop-color="#fff054"
         offset="1.00000000000"
         stop-opacity="1.00000000000"
         id="stop34" />
    </linearGradient>
    <linearGradient
       id="gradient6"
       gradientTransform="matrix(1.3319301,0,0,0.799158,28,1.0000019)"
       gradientUnits="userSpaceOnUse"
       x1="-25.420583"
       y1="1378.3444"
       x2="-25.420583"
       y2="1375.6897"
       spreadMethod="pad">
      <stop
         stop-color="#ffd70c"
         offset="0.00000000000"
         stop-opacity="1.00000000000"
         id="stop37" />
      <stop
         stop-color="#fff054"
         offset="1.00000000000"
         stop-opacity="1.00000000000"
         id="stop39" />
    </linearGradient>
  </defs>
  <rect
     style="fill:#bebebe"
     y="-48"
     x="0"
     ry="1.9445424"
     rx="1.9445424"
     height="47.999969"
     width="47.999969"
     transform="scale(1,-1)"
     id="rect2991-1-7" />
  <path
     style="color:#000000;font-style:normal;font-variant:normal;font-weight:normal;font-stretch:normal;font-size:medium;line-height:normal;font-family:sans-serif;text-indent:0;text-align:start;text-decoration:none;text-decoration-line:none;text-decoration-style:solid;text-decoration-color:#000000;letter-spacing:normal;word-spacing:normal;text-transform:none;direction:ltr;block-progression:tb;writing-mode:lr-tb;baseline-shift:baseline;text-anchor:start;white-space:normal;clip-rule:nonzero;display:inline;overflow:visible;visibility:visible;opacity:1;isolation:auto;mix-blend-mode:normal;color-interpolation:sRGB;color-interpolation-filters:linearRGB;solid-color:#000000;solid-opacity:1;fill:#ffffff;fill-opacity:1;fill-rule:nonzero;stroke:none;stroke-width:1;stroke-linecap:butt;stroke-linejoin:miter;stroke-miterlimit:4;stroke-dasharray:none;stroke-dashoffset:0;stroke-opacity:1;color-rendering:auto;image-rendering:auto;shape-rendering:auto;text-rendering:auto;enable-background:accumulate"
     d="M 8.296875,8.7000019 C 6.7955541,8.7000019 5.7923815,9.544744 5.8,10.9375 l 0.2,36.562502 36,0 L 42.2,10.9375 C 42.207618,9.5447588 41.204466,8.7000019 39.703125,8.7000019 Z M 8.296875,9 39.703125,9 C 40.979925,9 42,9.86018 42,10.9375 L 42,48 6,48 6,10.9375 C 6,9.86018 7.0200988,9 8.296875,9 Z"
     id="path4272"
     inkscape:connector-curvature="0"
     sodipodi:nodetypes="ssccssssssccss" />
  <path
     style="fill:#000000;fill-opacity:0.68235296"
     inkscape:connector-curvature="0"
     d="m 8.2963209,9.00001 c -1.2767762,0 -2.29632,0.86008 -2.29632,1.9374 l 0,37.0626 36.0000001,0 0,-37.0626 c 0,-1.07732 -1.019496,-1.9374 -2.296296,-1.9374 z"
     id="rect2991" />
  <path
     style="fill:#000000"
     inkscape:connector-curvature="0"
     d="m 3e-5,45 0,1.0626 C 3e-5,47.13988 0.86023,48 1.93751,48 l 44.12492,0 c 1.0773,0 1.9376,-0.86012 1.9376,-1.9374 l 0,-1.0626 c 0,1.07728 -0.8603,1.9374 -1.9376,1.9374 l -44.12492,0 C 0.86023,46.9374 3e-5,46.07728 3e-5,45 Z"
     id="rect846-1" />
  <path
     inkscape:connector-curvature="0"
     style="fill:url(#gradient0)"
     d="m 5.6875078,44.156349 c 0,1.018279 -0.8254796,1.843759 -1.8437487,1.843759 C 2.8254765,46.000108 2,45.174628 2,44.156349 2,43.138076 2.8254765,42.3126 3.8437591,42.3126 c 1.0182691,0 1.8437487,0.825476 1.8437487,1.843749 z"
     id="path1538" />
  <path
     style="fill:#000000;fill-opacity:0.68104063"
     inkscape:connector-curvature="0"
     d="M 5,43.500007 C 5,42.671577 4.3284248,42.000002 3.5000042,42.000002 2.6715727,42.000002 2,42.671577 2,43.500007 2,44.328429 2.6715727,45.000002 3.5000042,45.000002 4.3284248,45.000002 5,44.328429 5,43.500007 Z"
     id="path1548" />
  <path
     inkscape:connector-curvature="0"
     style="fill:url(#gradient1)"
     d="m 46.000008,44.156349 c 0,1.018279 -0.82548,1.843759 -1.843749,1.843759 -1.018283,0 -1.843759,-0.82548 -1.843759,-1.843759 0,-1.018273 0.825476,-1.843749 1.843759,-1.843749 1.018269,0 1.843749,0.825476 1.843749,1.843749 z"
     id="path1584" />
  <path
     style="fill:#000000;fill-opacity:0.68104063"
     inkscape:connector-curvature="0"
     d="M 46,43.500006 C 46,42.671577 45.328425,42.000002 44.500004,42.000002 43.671573,42.000002 43,42.671577 43,43.500006 c 0,0.828423 0.671573,1.499996 1.500004,1.499996 C 45.328425,45.000002 46,44.328429 46,43.500006 Z"
     id="path1586" />
  <path
     inkscape:connector-curvature="0"
     style="fill:url(#gradient2)"
     d="m 5.6875078,4.1561787 c 0,1.0182795 -0.8254796,1.8437591 -1.8437487,1.8437591 C 2.8254765,5.9999378 2,5.1744582 2,4.1561787 2,3.1379065 2.8254765,2.31243 3.8437591,2.31243 c 1.0182691,0 1.8437487,0.8254765 1.8437487,1.8437487 z"
     id="path1601" />
  <path
     style="fill:#000000;fill-opacity:0.68104063"
     inkscape:connector-curvature="0"
     d="M 6,4.5000061 C 6,3.6715771 5.3284248,3.0000019 4.5000042,3.0000019 3.6715727,3.0000019 3,3.6715771 3,4.5000061 3,5.3284292 3.6715727,6.0000019 4.5000042,6.0000019 5.3284248,6.0000019 6,5.3284292 6,4.5000061 Z"
     id="path1603" />
  <path
     inkscape:connector-curvature="0"
     style="fill:url(#gradient3)"
     d="m 46.000008,4.1561787 c 0,1.0182795 -0.82548,1.8437591 -1.843749,1.8437591 -1.018283,0 -1.843759,-0.8254796 -1.843759,-1.8437591 0,-1.0182722 0.825476,-1.8437487 1.843759,-1.8437487 1.018269,0 1.843749,0.8254765 1.843749,1.8437487 z"
     id="path1613" />
  <path
     style="fill:#000000;fill-opacity:0.68235294"
     inkscape:connector-curvature="0"
     d="M 45,4.5000061 C 45,3.6715771 44.328425,3.0000019 43.500004,3.0000019 42.671573,3.0000019 42,3.6715771 42,4.5000061 42,5.3284292 42.671573,6.0000019 43.500004,6.0000019 44.328425,6.0000019 45,5.3284292 45,4.5000061 Z"
     id="path1615" />
  <path
     style="fill:#000000"
     inkscape:connector-curvature="0"
     d="M 11,1.650549e-6 11,3.7020825 c 0,1.2730678 1.005995,2.2979194 2.255639,2.2979194 l 20.488722,0 C 34.993985,6.0000019 36,4.9751503 36,3.7020825 L 36,1.650549e-6 Z"
     id="path2334" />
  <path
     inkscape:connector-curvature="0"
     style="fill:url(#gradient4)"
     d="M 14.121766,1.0000019 C 14.032396,1.0000019 14,1.1728144 14,1.272749 l 0,2.5910976 c 0,0.099935 0.03122,0.1361553 0.121766,0.1361553 l 3.414907,0 0.365688,0 0.853727,0 C 18.845458,4.0000019 19,3.9650909 19,3.8638466 L 19,1.272749 C 19,1.172814 18.84546,1.0000019 18.756088,1.0000019 l -0.853727,0 -0.365688,0 z"
     id="rect2460" />
  <path
     inkscape:connector-curvature="0"
     style="fill:url(#gradient5)"
     d="M 21.121761,1.0000019 C 21.032391,1.0000019 21,1.1728144 21,1.272749 l 0,2.5910976 c 0,0.099935 0.03122,0.1361553 0.121761,0.1361553 l 3.414768,0 0.731735,0 0.487825,0 C 25.845459,4.0000019 26,3.9650909 26,3.8638466 L 26,1.272749 C 26,1.172814 25.845457,1.0000019 25.756089,1.0000019 l -0.487825,0 -0.731735,0 z"
     id="rect2478" />
  <path
     inkscape:connector-curvature="0"
     style="fill:url(#gradient6)"
     d="M 28.121761,1.0000019 C 28.032391,1.0000019 28,1.1728144 28,1.272749 l 0,2.5910976 c 0,0.099935 0.03122,0.1361553 0.121761,0.1361553 l 3.414765,0 0.487825,0 0.731737,0 C 32.845458,4.0000019 33,3.9650909 33,3.8638466 L 33,1.272749 C 33,1.172814 32.845458,1.0000019 32.756088,1.0000019 l -0.731737,0 -0.487825,0 z"
     id="rect2490" />
  <path
     style="opacity:1;fill:#5cb12d;fill-opacity:1;stroke:none;stroke-width:1;stroke-linecap:round;stroke-linejoin:round;stroke-miterlimit:4;stroke-dasharray:none;stroke-opacity:1"
     d="M 24 12 L 24 22 A 6 6 0 0 1 30 28 L 40 28 C 40 19.163444 32.836556 12 24 12 z "
     id="path4218" />
  <path
     style="opacity:1;fill:#f84640;fill-opacity:1;stroke:none;stroke-width:1;stroke-linecap:round;stroke-linejoin:round;stroke-miterlimit:4;stroke-dasharray:none;stroke-opacity:1"
     d="M 30 28 A 6 6 0 0 1 24 34 L 24 44 C 32.836556 44 40 36.836556 40 28 L 30 28 z "
     id="path4221" />
  <path
     style="opacity:1;fill:#f8ab40;fill-opacity:1;stroke:none;stroke-width:1;stroke-linecap:round;stroke-linejoin:round;stroke-miterlimit:4;stroke-dasharray:none;stroke-opacity:1"
     d="M 24 12 C 15.163444 12 8 19.163444 8 28 L 18 28 A 6 6 0 0 1 24 22 L 24 12 z "
     id="path4223" />
  <path
     style="opacity:1;fill:#ffffff;fill-opacity:1;stroke:none;stroke-width:1;stroke-linecap:round;stroke-linejoin:round;stroke-miterlimit:4;stroke-dasharray:none;stroke-opacity:1"
     d="M 8 28 C 8 36.836556 15.163444 44 24 44 L 24 34 A 6 6 0 0 1 18 28 L 8 28 z "
     id="path4225" />
  <circle
     style="opacity:0.2;fill:none;fill-opacity:1;stroke:#000000;stroke-width:2;stroke-linecap:round;stroke-linejoin:round;stroke-miterlimit:4;stroke-dasharray:none;stroke-opacity:1"
     id="path4249"
     cx="24"
     cy="28.000002"
     r="12" />
  <path
     style="fill:#000000;fill-opacity:1;opacity:0.3"
     d="M 8.296875 9 C 7.0200988 9 6 9.86018 6 10.9375 L 6 48 L 42 48 L 42 10.9375 C 42 9.86018 40.979925 9 39.703125 9 L 8.296875 9 z M 8.296875 10 L 39.703125 10 C 40.530844 10 41 10.491064 41 10.9375 L 41 47 L 7 47 L 7 10.9375 C 7 10.491094 7.4691882 10 8.296875 10 z "
     id="path4263" />
</svg>
