<?xml version="1.0" encoding="UTF-8" standalone="no"?>
<!-- Created using Karbon, part of Calligra: http://www.calligra.org/karbon -->

<svg
   xmlns:dc="http://purl.org/dc/elements/1.1/"
   xmlns:cc="http://creativecommons.org/ns#"
   xmlns:rdf="http://www.w3.org/1999/02/22-rdf-syntax-ns#"
   xmlns:svg="http://www.w3.org/2000/svg"
   xmlns="http://www.w3.org/2000/svg"
   xmlns:sodipodi="http://sodipodi.sourceforge.net/DTD/sodipodi-0.dtd"
   xmlns:inkscape="http://www.inkscape.org/namespaces/inkscape"
   width="38.4pt"
   height="38.4pt"
   id="svg2"
   version="1.1"
   inkscape:version="0.91 r13725"
   sodipodi:docname="libreoffice-tmp.svg">
  <metadata
     id="metadata14">
    <rdf:RDF>
      <cc:Work
         rdf:about="">
        <dc:format>image/svg+xml</dc:format>
        <dc:type
           rdf:resource="http://purl.org/dc/dcmitype/StillImage" />
        <dc:title />
      </cc:Work>
    </rdf:RDF>
  </metadata>
  <sodipodi:namedview
     pagecolor="#ffffff"
     bordercolor="#666666"
     borderopacity="1"
     objecttolerance="10"
     gridtolerance="10"
     guidetolerance="10"
     inkscape:pageopacity="0"
     inkscape:pageshadow="2"
     inkscape:window-width="926"
     inkscape:window-height="1027"
     id="namedview12"
     showgrid="false"
     borderlayer="true"
     inkscape:showpageshadow="false"
     inkscape:zoom="9.8333329"
     inkscape:cx="25.243122"
     inkscape:cy="22.915112"
     inkscape:window-x="65"
     inkscape:window-y="24"
     inkscape:window-maximized="0"
     inkscape:current-layer="svg2"
     inkscape:snap-global="false">
    <sodipodi:guide
       position="4.000001,44.000001"
       orientation="39.999999,0"
       id="guide4099" />
    <sodipodi:guide
       position="4.000001,4.0000019"
       orientation="0,39.999999"
       id="guide4101" />
    <sodipodi:guide
       position="44,4.0000019"
       orientation="-39.999999,0"
       id="guide4103" />
    <sodipodi:guide
       position="44,44.000001"
       orientation="0,-39.999999"
       id="guide4105" />
    <sodipodi:guide
       position="9.5367432e-07,48.000001"
       orientation="47.999999,0"
       id="guide4109" />
    <sodipodi:guide
       position="9.5367432e-07,1.9073486e-06"
       orientation="0,47.999999"
       id="guide4111" />
    <sodipodi:guide
       position="48,1.9073486e-06"
       orientation="-47.999999,0"
       id="guide4113" />
    <sodipodi:guide
       position="48,48.000001"
       orientation="0,-47.999999"
       id="guide4115" />
    <sodipodi:guide
       position="15.000001,33.000002"
       orientation="18,0"
       id="guide4127" />
    <sodipodi:guide
       position="15.000001,15.000002"
       orientation="0,17.999999"
       id="guide4129" />
    <sodipodi:guide
       position="33,15.000002"
       orientation="-18,0"
       id="guide4131" />
    <sodipodi:guide
       position="33,33.000002"
       orientation="0,-17.999999"
       id="guide4133" />
    <sodipodi:guide
       position="15.000001,24.000002"
       orientation="9,0"
       id="guide4137" />
    <sodipodi:guide
       position="15.000001,15.000002"
       orientation="0,6.999999"
       id="guide4139" />
    <sodipodi:guide
       position="22,15.000002"
       orientation="-9,0"
       id="guide4141" />
    <sodipodi:guide
       position="22,24.000002"
       orientation="0,-6.999999"
       id="guide4143" />
    <sodipodi:guide
       position="22,21.000002"
       orientation="6,0"
       id="guide4147" />
    <sodipodi:guide
       position="22,15.000002"
       orientation="0,6"
       id="guide4149" />
    <sodipodi:guide
       position="28,15.000002"
       orientation="-6,0"
       id="guide4151" />
    <sodipodi:guide
       position="28,21.000002"
       orientation="0,-6"
       id="guide4153" />
  </sodipodi:namedview>
  <defs
     id="defs4" />
  <rect
     style="fill:#aa7f41;fill-opacity:1;stroke:none"
     id="rect4093"
     width="40"
     height="40"
     x="4.000001"
     y="4.000001" />
  <rect
     y="7"
     x="7.000001"
     height="34"
     width="34"
     id="rect4095"
     style="fill:#3c4348;fill-opacity:1;stroke:none" />
  <path
     style="opacity:1;fill:#d6d6d6;fill-opacity:1;stroke:none;stroke-width:2;stroke-opacity:1"
     d="m 35.420007,14.370096 -11.419945,0 -6.340082,10.979421 -2.219296,-3.847522 -0.0057,0 -2.854986,0 0,1.427493 2.038075,0 3.044571,5.272089 0.822493,-1.424638 6.342852,-10.984988 9.164405,0 0,1.427494 1.427494,0 0,-2.854987 z"
     id="path4256"
     inkscape:connector-curvature="0" />
  <path
     inkscape:connector-curvature="0"
     style="opacity:1;fill:#d6d6d6;fill-opacity:1;stroke:none;stroke-width:2;stroke-opacity:1"
     d="m 28.282548,19.01768 c -2.372493,0 -4.282478,1.909986 -4.282478,4.282479 0,2.372494 1.909985,4.28248 4.282478,4.28248 1.103881,0 2.097174,-0.425666 2.854987,-1.106865 l 0,1.106865 1.427493,0 0,-4.28248 0,-4.282479 -1.427493,0 0,1.106864 c -0.757813,-0.6812 -1.751106,-1.106864 -2.854987,-1.106864 z m 0,1.427492 c 1.581663,0 2.854987,1.273325 2.854987,2.854987 0,1.581662 -1.273324,2.854986 -2.854987,2.854986 -1.581662,0 -2.854986,-1.273324 -2.854986,-2.854986 0,-1.581662 1.273324,-2.854987 2.854986,-2.854987 z m -15.688484,8.907893 c -0.0086,0 -0.01394,0.318331 -0.01394,0.713746 0,0.395416 0.0054,0.713746 0.01394,0.713746 l 22.81201,0 c 0.0086,0 0.01394,-0.31833 0.01394,-0.713746 0,-0.395415 -0.0054,-0.713746 -0.01394,-0.713746 l -22.81201,0 z m 9.992452,2.854986 c -0.0086,0 -0.01394,0.318331 -0.01394,0.713746 0,0.395416 0.0054,0.713747 0.01394,0.713747 l 2.827107,0 c 0.0086,0 0.01394,-0.318331 0.01394,-0.713747 0,-0.395415 -0.0054,-0.713746 -0.01394,-0.713746 l -2.827107,0 z"
     id="path4254" />
</svg>
