<?xml version="1.0" encoding="UTF-8" standalone="no"?>
<svg
   xmlns:dc="http://purl.org/dc/elements/1.1/"
   xmlns:cc="http://creativecommons.org/ns#"
   xmlns:rdf="http://www.w3.org/1999/02/22-rdf-syntax-ns#"
   xmlns:svg="http://www.w3.org/2000/svg"
   xmlns="http://www.w3.org/2000/svg"
   xmlns:sodipodi="http://sodipodi.sourceforge.net/DTD/sodipodi-0.dtd"
   xmlns:inkscape="http://www.inkscape.org/namespaces/inkscape"
   viewBox="0 0 48 48"
   id="svg2"
   version="1.1"
   inkscape:version="0.91 r13725"
   sodipodi:docname="octave.svg">
  <metadata
     id="metadata60">
    <rdf:RDF>
      <cc:Work
         rdf:about="">
        <dc:format>image/svg+xml</dc:format>
        <dc:type
           rdf:resource="http://purl.org/dc/dcmitype/StillImage" />
      </cc:Work>
    </rdf:RDF>
  </metadata>
  <sodipodi:namedview
     pagecolor="#ffffff"
     bordercolor="#666666"
     borderopacity="1"
     objecttolerance="10"
     gridtolerance="10"
     guidetolerance="10"
     inkscape:pageopacity="0"
     inkscape:pageshadow="2"
     inkscape:window-width="1855"
     inkscape:window-height="1056"
     id="namedview58"
     showgrid="false"
     inkscape:zoom="19.666667"
     inkscape:cx="28.2742"
     inkscape:cy="26.619867"
     inkscape:window-x="1985"
     inkscape:window-y="24"
     inkscape:window-maximized="1"
     inkscape:current-layer="svg2"
     showguides="true"
     inkscape:guide-bbox="true">
    <sodipodi:guide
       position="4.0628677,39.442176"
       orientation="1,0"
       id="guide4190" />
    <sodipodi:guide
       position="44.033898,37.576271"
       orientation="1,0"
       id="guide4151" />
  </sodipodi:namedview>
  <defs
     id="defs4">
    <linearGradient
       id="linearGradient3764"
       x1="1"
       x2="47"
       gradientUnits="userSpaceOnUse"
       gradientTransform="matrix(0,-1,1,0,-1.5e-6,47.999998)">
      <stop
         style="stop-color:#e4e4e4;stop-opacity:1"
         id="stop7" />
      <stop
         offset="1"
         style="stop-color:#eee;stop-opacity:1"
         id="stop9" />
    </linearGradient>
    <radialGradient
       id="radial0"
       gradientUnits="userSpaceOnUse"
       cx="182.98"
       cy="395.05"
       r="148.95"
       gradientTransform="matrix(0.165918,-0.178305,0.553456,0.594776,-229.68345,-169.66171)">
      <stop
         style="stop-color:#008cbe;stop-opacity:1"
         id="stop12" />
      <stop
         offset="1"
         style="stop-color:#b2ffff;stop-opacity:1"
         id="stop14" />
    </radialGradient>
  </defs>
  <g
     id="g24"
     transform="matrix(0.88725129,0,0,0.88725129,2.705969,2.705969)">
    <path
       d="M 24,1 C 36.703,1 47,11.297 47,24 47,36.703 36.703,47 24,47 11.297,47 1,36.703 1,24 1,11.297 11.297,1 24,1 Z"
       style="fill:url(#linearGradient3764);fill-opacity:1"
       id="path26"
       inkscape:connector-curvature="0" />
  </g>
  <g
     id="g40"
     transform="matrix(0.95168211,0,0,0.95168211,1.1596662,1.1595152)">
    <g
       id="g42">
      <!-- color: #eeeeee -->
      <g
         id="g44">
        <path
           d="m 15.988,14.492 c -3.766,4.04 -2.852,11.574 2.031,16.828 4.887,5.25 11.898,6.227 15.66,2.184 3.762,-4.04 2.852,-11.578 -2.035,-16.824 -4.887,-5.254 -11.898,-6.23 -15.66,-2.187 m 3.414,1.68 c 2.957,-3.18 8.391,-2.488 12.141,1.543 3.75,4.03 4.395,9.875 1.434,13.05 -2.953,3.18 -8.395,2.488 -12.141,-1.539 -3.75,-4.03 -4.391,-9.871 -1.438,-13.05 m 0.004,0"
           style="fill:url(#radial0);fill-rule:nonzero;stroke:none"
           id="path46"
           inkscape:connector-curvature="0" />
        <path
           d="m 30.531,16 1.941,0 c 0.293,0 0.531,0.238 0.531,0.531 l 0,1.941 c 0,0.293 -0.238,0.531 -0.531,0.531 l -1.941,0 C 30.238,19.003 30,18.765 30,18.472 l 0,-1.941 C 30,16.238 30.238,16 30.531,16 m 0,0"
           style="fill:#ff6212;fill-opacity:1;fill-rule:nonzero;stroke:none"
           id="path48"
           inkscape:connector-curvature="0" />
        <path
           d="m 13.242,20 4.52,0 c 0.688,0 1.242,0.555 1.242,1.238 l 0,4.523 c 0,0.684 -0.555,1.238 -1.242,1.238 l -4.52,0 C 12.554,26.999 12,26.444 12,25.761 l 0,-4.523 C 12,20.554 12.555,20 13.242,20 m 0,0"
           style="fill:#ff6212;fill-opacity:1;fill-rule:nonzero;stroke:none"
           id="path50"
           inkscape:connector-curvature="0" />
        <path
           d="m 31.887,29 3.227,0 c 0.488,0 0.887,0.395 0.887,0.883 l 0,3.23 c 0,0.488 -0.398,0.883 -0.887,0.883 l -3.227,0 C 31.399,33.996 31,33.601 31,33.113 l 0,-3.23 C 31,29.395 31.398,29 31.887,29 m 0,0"
           style="fill:#ff6212;fill-opacity:1;fill-rule:nonzero;stroke:none"
           id="path52"
           inkscape:connector-curvature="0" />
      </g>
    </g>
  </g>
</svg>
