<?xml version="1.0" encoding="UTF-8" standalone="no"?>
<!-- Created with Inkscape (http://www.inkscape.org/) -->

<svg
   xmlns:dc="http://purl.org/dc/elements/1.1/"
   xmlns:cc="http://creativecommons.org/ns#"
   xmlns:rdf="http://www.w3.org/1999/02/22-rdf-syntax-ns#"
   xmlns:svg="http://www.w3.org/2000/svg"
   xmlns="http://www.w3.org/2000/svg"
   xmlns:sodipodi="http://sodipodi.sourceforge.net/DTD/sodipodi-0.dtd"
   xmlns:inkscape="http://www.inkscape.org/namespaces/inkscape"
   width="48"
   height="48"
   id="svg2"
   version="1.1"
   inkscape:version="0.91 r"
   viewBox="0 0 13.546667 13.546667"
   sodipodi:docname="plank.svg">
  <defs
     id="defs4">
    <clipPath
       id="clipPath-934514917">
      <g
         transform="translate(0,-1004.3622)"
         id="g17">
        <path
           inkscape:connector-curvature="0"
           d="m -24,13 c 0,1.105 -0.672,2 -1.5,2 -0.828,0 -1.5,-0.895 -1.5,-2 0,-1.105 0.672,-2 1.5,-2 0.828,0 1.5,0.895 1.5,2 z"
           transform="matrix(15.333333,0,0,11.5,414.99999,878.8622)"
           style="fill:#1890d0"
           id="path19" />
      </g>
    </clipPath>
  </defs>
  <sodipodi:namedview
     id="base"
     pagecolor="#ffffff"
     bordercolor="#666666"
     borderopacity="1.0"
     inkscape:pageopacity="0.0"
     inkscape:pageshadow="2"
     inkscape:zoom="1"
     inkscape:cx="1.4761441"
     inkscape:cy="29.495371"
     inkscape:document-units="px"
     inkscape:current-layer="layer1"
     showgrid="false"
     units="px"
     borderlayer="true"
     inkscape:showpageshadow="false"
     inkscape:window-width="1600"
     inkscape:window-height="843"
     inkscape:window-x="-4"
     inkscape:window-y="31"
     inkscape:window-maximized="1"
     showguides="false">
    <sodipodi:guide
       position="8.9999996,38.999975"
       orientation="30.000028,0"
       id="guide3266" />
    <sodipodi:guide
       position="8.9999996,8.9999467"
       orientation="0,30.000001"
       id="guide3268" />
    <sodipodi:guide
       position="39.000001,8.9999467"
       orientation="-30.000028,0"
       id="guide3270" />
    <sodipodi:guide
       position="39.000001,38.999975"
       orientation="0,-30.000001"
       id="guide3272" />
    <sodipodi:guide
       position="3.9999989,44.000052"
       orientation="39.999965,0"
       id="guide3303" />
    <sodipodi:guide
       position="3.9999989,4.0000862"
       orientation="0,40.000001"
       id="guide3305" />
    <sodipodi:guide
       position="44,4.0000862"
       orientation="-39.999965,0"
       id="guide3307" />
    <sodipodi:guide
       position="44,44.000052"
       orientation="0,-40.000001"
       id="guide3309" />
    <sodipodi:guide
       position="15.000001,32.999883"
       orientation="17.999952,0"
       id="guide3313" />
    <sodipodi:guide
       position="15.000001,14.999931"
       orientation="0,17.999999"
       id="guide3315" />
    <sodipodi:guide
       position="33,14.999931"
       orientation="-17.999952,0"
       id="guide3317" />
    <sodipodi:guide
       position="33,32.999883"
       orientation="0,-17.999999"
       id="guide3319" />
    <sodipodi:guide
       position="19.000001,18.999992"
       orientation="3.9999533,0"
       id="guide3352" />
    <sodipodi:guide
       position="19.000001,15.000039"
       orientation="0,4.0000006"
       id="guide3354" />
    <sodipodi:guide
       position="23.000002,15.000039"
       orientation="-3.9999533,0"
       id="guide3356" />
    <sodipodi:guide
       position="23.000002,18.999992"
       orientation="0,-4.0000006"
       id="guide3358" />
    <sodipodi:guide
       position="19.000001,32.999991"
       orientation="3.9999533,0"
       id="guide3360" />
    <sodipodi:guide
       position="19.000001,29.000038"
       orientation="0,4.0000006"
       id="guide3362" />
    <sodipodi:guide
       position="23.000002,29.000038"
       orientation="-3.9999533,0"
       id="guide3364" />
    <sodipodi:guide
       position="23.000002,32.999991"
       orientation="0,-4.0000006"
       id="guide3366" />
    <sodipodi:guide
       position="24.999999,32.999991"
       orientation="3.9999533,0"
       id="guide3368" />
    <sodipodi:guide
       position="24.999999,29.000038"
       orientation="0,4.0000006"
       id="guide3370" />
    <sodipodi:guide
       position="28.999999,29.000038"
       orientation="-3.9999533,0"
       id="guide3372" />
    <sodipodi:guide
       position="28.999999,32.999991"
       orientation="0,-4.0000006"
       id="guide3374" />
    <sodipodi:guide
       position="24.999999,18.999992"
       orientation="3.9999533,0"
       id="guide3376" />
    <sodipodi:guide
       position="24.999999,15.000039"
       orientation="0,4.0000006"
       id="guide3378" />
    <sodipodi:guide
       position="28.999999,15.000039"
       orientation="-3.9999533,0"
       id="guide3380" />
    <sodipodi:guide
       position="28.999999,18.999992"
       orientation="0,-4.0000006"
       id="guide3382" />
  </sodipodi:namedview>
  <metadata
     id="metadata7">
    <rdf:RDF>
      <cc:Work
         rdf:about="">
        <dc:format>image/svg+xml</dc:format>
        <dc:type
           rdf:resource="http://purl.org/dc/dcmitype/StillImage" />
        <dc:title></dc:title>
      </cc:Work>
    </rdf:RDF>
  </metadata>
  <g
     inkscape:label="Capa 1"
     inkscape:groupmode="layer"
     id="layer1"
     transform="translate(0,-283.45334)">
    <rect
       y="284.58221"
       x="1.1288886"
       height="11.28889"
       width="11.28889"
       id="rect3284"
       style="fill:#1893d2;fill-opacity:1;stroke:none" />
    <g
       transform="matrix(0.28222222,0,0,0.28222222,-1.7805694e-4,283.16999)"
       id="g45"
       style="fill:#ffffff;fill-opacity:1">
      <g
         id="g47"
         clip-path="url(#clipPath-934514917)"
         style="fill:#ffffff;fill-opacity:1">
        <!-- color: #70bdea -->
        <g
           id="g49"
           style="fill:#ffffff;fill-opacity:1">
          <path
             inkscape:connector-curvature="0"
             d="m 24,11 c -1.66,0 -3,1.293 -3,2.887 0,1.203 0.914,2.195 2,2.629 l 0,2.48 -4.629,0 c -0.199,0 -0.375,0.254 -0.375,0.457 l 0,1.082 c 0,0.207 0.168,0.504 0.375,0.457 l 4.629,0 0,11.668 c 0,0.375 -0.77,0.379 -1.133,0.418 -0.535,0 -0.863,-0.133 -1.371,-0.266 -1.156,-0.328 -2.258,-0.777 -3.316,-1.324 -0.449,-0.238 -0.883,-0.469 -1.281,-0.777 -0.168,-0.145 -0.367,-0.344 -0.352,-0.574 0.023,-0.18 0.117,-0.363 0.316,-0.395 0.18,-0.027 0.344,0.066 0.504,0.125 0.137,0.055 0.234,-0.105 0.211,-0.215 -0.02,-0.289 -0.121,-0.559 -0.277,-0.809 -0.328,-0.52 -0.832,-0.902 -1.352,-1.23 -0.555,-0.34 -1.148,-0.715 -1.504,-1.266 -0.07,-0.098 -0.148,-0.27 -0.305,-0.215 -0.219,0.066 -0.34,0.273 -0.445,0.449 -0.301,0.547 -0.449,1.145 -0.586,1.75 -0.109,0.48 -0.129,0.988 -0.09,1.477 0.039,0.488 0.074,0.984 0.277,1.445 0.133,0.301 0.359,0.543 0.586,0.781 0.145,-0.148 0.297,-0.309 0.445,-0.449 0.191,-0.188 0.434,-0.309 0.719,-0.27 0.383,0.047 0.73,0.273 1.031,0.484 0.426,0.313 0.82,0.645 1.254,0.961 0.684,0.504 1.438,0.871 2.215,1.227 0.645,0.289 1.309,0.574 1.98,0.813 0.121,0.051 0.25,0.047 0.375,0.09 1.207,0.477 2.227,1.047 3.063,2.055 0,0.016 0,0.043 0,0.059 0.008,-0.012 0.023,-0.027 0.035,-0.035 0.008,0.012 0.023,0.027 0.035,0.035 0.008,-0.031 -0.008,-0.066 0,-0.094 0.832,-0.996 1.859,-1.539 3.059,-2.02 0.125,-0.043 0.258,-0.039 0.379,-0.09 0.668,-0.234 1.336,-0.523 1.98,-0.813 0.773,-0.355 1.531,-0.727 2.215,-1.227 0.43,-0.316 0.828,-0.648 1.254,-0.961 0.301,-0.211 0.648,-0.441 1.031,-0.484 0.281,-0.035 0.52,0.086 0.715,0.27 0.148,0.145 0.301,0.305 0.445,0.449 0.227,-0.234 0.457,-0.48 0.586,-0.781 0.207,-0.457 0.242,-0.953 0.281,-1.445 0.039,-0.488 0.016,-1 -0.094,-1.477 -0.133,-0.605 -0.289,-1.199 -0.586,-1.75 -0.105,-0.176 -0.23,-0.383 -0.445,-0.449 -0.156,-0.055 -0.234,0.113 -0.305,0.215 -0.355,0.547 -0.945,0.922 -1.504,1.266 -0.523,0.328 -1.023,0.711 -1.355,1.23 -0.156,0.25 -0.258,0.52 -0.281,0.809 -0.02,0.109 0.074,0.273 0.223,0.219 0.148,-0.059 0.313,-0.152 0.5,-0.125 0.203,0.031 0.297,0.219 0.313,0.395 0.023,0.23 -0.18,0.434 -0.352,0.574 -0.398,0.305 -0.832,0.539 -1.277,0.777 -1.059,0.547 -2.16,0.996 -3.313,1.32 -0.52,0.137 -0.844,0.27 -1.371,0.27 -0.461,0.078 -1.145,-0.16 -1.145,-0.418 l 0,-11.668 4.629,0 c 0.184,0 0.375,-0.238 0.375,-0.457 l 0,-1.082 c 0,-0.211 -0.18,-0.414 -0.375,-0.457 l -4.629,0 0,-2.48 c 1.102,-0.434 2,-1.426 2,-2.629 0,-1.598 -1.344,-2.891 -3,-2.891 m -0.063,1.41 c 0.805,0 1.469,0.609 1.469,1.387 0,0.773 -0.66,1.41 -1.469,1.41 -0.805,0 -1.477,-0.637 -1.477,-1.41 0,-0.773 0.668,-1.387 1.477,-1.387 m 0,0"
             style="fill:#ffffff;fill-opacity:1;fill-rule:nonzero;stroke:none"
             id="path51" />
        </g>
      </g>
    </g>
    <rect
       style="opacity:1;fill:#ffffff;fill-opacity:1;stroke:none;stroke-width:0.56444442;stroke-linecap:round;stroke-linejoin:round;stroke-miterlimit:4;stroke-dasharray:none;stroke-opacity:1"
       id="rect4186"
       width="9.5955553"
       height="1.1288888"
       x="1.9755558"
       y="293.89557" />
  </g>
</svg>
