<?xml version="1.0" encoding="UTF-8" standalone="no"?>
<!-- Created with Inkscape (http://www.inkscape.org/) -->

<svg
   xmlns:dc="http://purl.org/dc/elements/1.1/"
   xmlns:cc="http://creativecommons.org/ns#"
   xmlns:rdf="http://www.w3.org/1999/02/22-rdf-syntax-ns#"
   xmlns:svg="http://www.w3.org/2000/svg"
   xmlns="http://www.w3.org/2000/svg"
   xmlns:sodipodi="http://sodipodi.sourceforge.net/DTD/sodipodi-0.dtd"
   xmlns:inkscape="http://www.inkscape.org/namespaces/inkscape"
   width="48"
   height="48"
   id="svg2"
   version="1.1"
   inkscape:version="0.91 r13725"
   viewBox="0 0 13.546666 13.546668"
   sodipodi:docname="steam.svg">
  <defs
     id="defs4" />
  <sodipodi:namedview
     id="base"
     pagecolor="#ffffff"
     bordercolor="#666666"
     borderopacity="1.0"
     inkscape:pageopacity="0"
     inkscape:pageshadow="2"
     inkscape:zoom="21.75"
     inkscape:cx="10.696791"
     inkscape:cy="21.724187"
     inkscape:document-units="px"
     inkscape:current-layer="layer1"
     showgrid="false"
     inkscape:showpageshadow="false"
     borderlayer="true"
     units="px"
     fit-margin-top="0"
     fit-margin-left="0"
     fit-margin-right="0"
     fit-margin-bottom="0"
     showguides="true"
     inkscape:window-width="1855"
     inkscape:window-height="1056"
     inkscape:window-x="65"
     inkscape:window-y="24"
     inkscape:window-maximized="1">
    <sodipodi:guide
       position="-6.6748425e-06,47.999999"
       orientation="47.999977,0"
       id="guide4120" />
    <sodipodi:guide
       position="-6.6748425e-06,2.2810037e-05"
       orientation="0,48.000004"
       id="guide4122" />
    <sodipodi:guide
       position="47.999997,2.2810037e-05"
       orientation="-47.999977,0"
       id="guide4124" />
    <sodipodi:guide
       position="47.999997,47.999999"
       orientation="0,-48.000004"
       id="guide4126" />
    <sodipodi:guide
       position="3.9999733,44.000154"
       orientation="39.999962,0"
       id="guide4138" />
    <sodipodi:guide
       position="3.9999733,4.0001921"
       orientation="0,40.000003"
       id="guide4140" />
    <sodipodi:guide
       position="43.999976,4.0001921"
       orientation="-39.999962,0"
       id="guide4142" />
    <sodipodi:guide
       position="43.999976,44.000154"
       orientation="0,-40.000003"
       id="guide4144" />
    <sodipodi:guide
       position="6.9999922,47.999999"
       orientation="39.999962,0"
       id="guide4148" />
    <sodipodi:guide
       position="6.9999922,8.0000369"
       orientation="0,34.000006"
       id="guide4150" />
    <sodipodi:guide
       position="40.999998,8.0000369"
       orientation="-39.999962,0"
       id="guide4152" />
    <sodipodi:guide
       position="40.999998,47.999999"
       orientation="0,-34.000006"
       id="guide4154" />
    <sodipodi:guide
       position="14.999993,32.999986"
       orientation="17.999951,0"
       id="guide4158" />
    <sodipodi:guide
       position="14.999993,15.000036"
       orientation="0,17.999998"
       id="guide4160" />
    <sodipodi:guide
       position="32.999991,15.000036"
       orientation="-17.999951,0"
       id="guide4162" />
    <sodipodi:guide
       position="32.999991,32.999986"
       orientation="0,-17.999998"
       id="guide4164" />
    <sodipodi:guide
       position="1.9999969,44.000046"
       orientation="39.999962,0"
       id="guide3279" />
    <sodipodi:guide
       position="1.9999969,4.0000839"
       orientation="0,44.000003"
       id="guide3281" />
    <sodipodi:guide
       position="46,4.0000839"
       orientation="-39.999962,0"
       id="guide3283" />
    <sodipodi:guide
       position="46,44.000046"
       orientation="0,-44.000003"
       id="guide3285" />
  </sodipodi:namedview>
  <metadata
     id="metadata7">
    <rdf:RDF>
      <cc:Work
         rdf:about="">
        <dc:format>image/svg+xml</dc:format>
        <dc:type
           rdf:resource="http://purl.org/dc/dcmitype/StillImage" />
        <dc:title />
      </cc:Work>
    </rdf:RDF>
  </metadata>
  <g
     inkscape:label="Capa 1"
     inkscape:groupmode="layer"
     id="layer1"
     transform="translate(38.119153,-397.84494)">
    <rect
       style="fill:#2c3e50;fill-opacity:1;stroke:none"
       id="rect4118"
       width="11.288891"
       height="11.288879"
       x="-36.990273"
       y="398.97379"
       ry="5.6444397" />
    <path
       style="fill:#ecf0f1;fill-opacity:1;stroke:none"
       d="m -28.773212,401.99501 c -0.730593,0 -1.327947,0.53143 -1.440164,1.22941 -8.9e-5,5.5e-4 -7.28e-4,10e-4 -8.17e-4,0.002 l -0.92226,2.34282 c -0.0618,-0.009 -0.123416,-0.0188 -0.187883,-0.0188 -0.239735,0 -0.460954,0.0705 -0.651055,0.18625 l -1.62723,-1.12158 c 0.01168,-0.0628 0.0196,-0.12734 0.0196,-0.1936 0,-0.57927 -0.466341,-1.04561 -1.045609,-1.04561 -0.579267,0 -1.045609,0.46634 -1.045609,1.04561 0,0.57927 0.466342,1.04561 1.045609,1.04561 0.204544,0 0.39384,-0.0602 0.554663,-0.16093 l 1.570865,1.08237 c -0.04608,0.13091 -0.07597,0.26956 -0.07597,0.41661 0,0.69512 0.559611,1.25473 1.254731,1.25473 0.695122,0 1.254732,-0.55961 1.254732,-1.25473 0,-0.14518 -0.02938,-0.28221 -0.07434,-0.41171 l 1.677876,-1.50306 c 0.662329,-0.14054 1.156706,-0.72576 1.156706,-1.43118 0,-0.81097 -0.652879,-1.46385 -1.463853,-1.46385 z m 0,0.41824 c 0.579267,0 1.045609,0.46634 1.045609,1.04561 0,0.57927 -0.466342,1.04561 -1.045609,1.04561 -0.579268,0 -1.04561,-0.46634 -1.04561,-1.04561 0,-0.57927 0.466342,-1.04561 1.04561,-1.04561 z m 0,0.20912 c -0.463414,0 -0.836488,0.37308 -0.836488,0.83649 0,0.46342 0.373074,0.83649 0.836488,0.83649 0.463414,0 0.836487,-0.37307 0.836487,-0.83649 0,-0.46341 -0.373073,-0.83649 -0.836487,-0.83649 z m -5.855413,1.17141 c 0.317571,0 0.575702,0.23452 0.61838,0.53996 l -0.158475,-0.10946 c -0.190774,-0.1315 -0.450116,-0.0838 -0.581621,0.10701 -0.131504,0.19078 -0.08376,0.45012 0.107012,0.58162 l 0.166644,0.11518 c -0.04889,0.0122 -0.09918,0.0204 -0.15194,0.0204 -0.34756,0 -0.627366,-0.2798 -0.627366,-0.62736 0,-0.34756 0.279806,-0.62737 0.627366,-0.62737 z m 3.649013,1.8094 c 0.01049,0.003 0.02068,0.007 0.03104,0.01 -0.01035,-0.003 -0.02058,-0.007 -0.03104,-0.01 z m 0.444384,0.23199 c 0.0077,0.006 0.01537,0.0124 0.02287,0.0188 -0.0075,-0.006 -0.0152,-0.0125 -0.02287,-0.0188 z m -0.789108,0.13315 c 0.463415,0 0.836488,0.37308 0.836488,0.83649 0,0.46341 -0.373073,0.83649 -0.836488,0.83649 -0.463413,0 -0.836487,-0.37308 -0.836487,-0.83649 0,-0.0579 0.006,-0.11454 0.01715,-0.16909 l 0.599592,0.41334 c 0.190774,0.1315 0.450116,0.0838 0.58162,-0.10701 0.131504,-0.19078 0.08376,-0.45012 -0.107011,-0.58162 l -0.507285,-0.34963 c 0.07996,-0.0253 0.163891,-0.0425 0.252417,-0.0425 z"
       id="rect4139"
       inkscape:connector-curvature="0" />
  </g>
</svg>
