<?xml version="1.0" encoding="utf-8"?>
<!-- Generator: Adobe Illustrator 19.0.0, SVG Export Plug-In . SVG Version: 6.00 Build 0)  -->
<svg version="1.1"
	 id="svg2" xmlns:rdf="http://www.w3.org/1999/02/22-rdf-syntax-ns#" xmlns:cc="http://creativecommons.org/ns#" xmlns:dc="http://purl.org/dc/elements/1.1/" xmlns:svg="http://www.w3.org/2000/svg"
	 xmlns="http://www.w3.org/2000/svg" xmlns:xlink="http://www.w3.org/1999/xlink" x="0px" y="0px" viewBox="-281 373 48 48"
	 style="enable-background:new -281 373 48 48;" xml:space="preserve">
<style type="text/css">
	.st0{clip-path:url(#SVGID_2_);fill:#7399F8;}
	.st1{clip-path:url(#SVGID_2_);fill:#94B1F9;}
	.st2{clip-path:url(#SVGID_2_);fill:#DFDFDF;}
	.st3{clip-path:url(#SVGID_2_);fill:#E93549;}
	.st4{clip-path:url(#SVGID_2_);fill:#F2F2F2;}
</style>
<g>
	<defs>
		<circle id="SVGID_1_" cx="-257" cy="397" r="20"/>
	</defs>
	<clipPath id="SVGID_2_">
		<use xlink:href="#SVGID_1_"  style="overflow:visible;"/>
	</clipPath>
	<rect id="rect4287-4" x="-277" y="377" class="st0" width="40" height="40"/>
	<path id="path4289-8" class="st1" d="M-266.4,412.7v0.9l-0.9-0.9v-4l0.9-0.9v-3l-1.8-1.8v-5h3.8l0.9,0.9h1.3l2.2,3.4l0.5,0.6v0.9
		l-2.9,2.9v2L-266.4,412.7z"/>
	<path id="path4268-4" class="st2" d="M-267.5,407.5l10-5.7l-4.3-4.4L-267.5,407.5z"/>
	<path id="path4305-0" class="st1" d="M-247.7,408.6l3.7-3.7v-4l2.8-2.8h-0.8l-2.9-2.9v-1.1h-5l-1-1l-2.9,3l1.4,3.2l0.5,0.3l1.3,1.3
		v1l1,1v3.9L-247.7,408.6z"/>
	<path id="path4311-2" class="st1" d="M-240,397l0.9-0.9l-1-1h3.1v-13.6h-1.8l-1,1h-2.3l-1.8,1.8l-1-1h-3.8l-2,2v0.8h1.9l0.8-0.8
		l0,0l0.3-0.2v2.1h-2.9l-1,1h-0.8v0.9l-1,1l-0.1,0.5l4.3,0l0.2,0.4h1.4l1,1h1.7l-0.8-0.8l1.1-1.1h1l1,1h-0.9l-1,1l1,1v1.9l2,2h1.6
		L-240,397z"/>
	<path id="path4268-9-9" class="st3" d="M-246.6,386.6l-10,5.7l4.3,4.4L-246.6,386.6z"/>
	<circle id="path4264-0" class="st4" cx="-257" cy="397" r="5.8"/>
	<path id="path4291-8" class="st1" d="M-271.1,378.5h5.5l-1.8,1.8h-1.9L-271.1,378.5z"/>
	<path id="path4293-4" class="st1" d="M-269.4,395v3.8l-2.9-2.9h-1.8l-2.9-2.9v-11.6h3.8l1.8,1.8h1.3v-1.9h2.7l1.8,1.8v0.8h-1.8
		l-2.1,2.1l3.1,3.1v-2.9h2.9l1.9,1.9l-4.8,4.8h-1.1l-1.9,1.9L-269.4,395z"/>
	<path id="path4303-4" class="st1" d="M-242.7,405.7v-1.8l0.8-0.7v2.5L-242.7,405.7z"/>
	<path id="path4307-8" class="st1" d="M-253.5,387.1h1.7v-1.7L-253.5,387.1z"/>
	<path id="path4309-8" class="st1" d="M-259.6,385.1h-0.8l-1.9-1.9V381l-1.8-1.8l1.8-1.8h5.8l1.8,1.8l-4.8,4.8L-259.6,385.1z"/>
</g>
</svg>
