<?xml version="1.0" encoding="UTF-8" standalone="no"?>
<!-- Created with Inkscape (http://www.inkscape.org/) -->

<svg
   xmlns:dc="http://purl.org/dc/elements/1.1/"
   xmlns:cc="http://creativecommons.org/ns#"
   xmlns:rdf="http://www.w3.org/1999/02/22-rdf-syntax-ns#"
   xmlns:svg="http://www.w3.org/2000/svg"
   xmlns="http://www.w3.org/2000/svg"
   xmlns:sodipodi="http://sodipodi.sourceforge.net/DTD/sodipodi-0.dtd"
   xmlns:inkscape="http://www.inkscape.org/namespaces/inkscape"
   version="1.0"
   width="48"
   height="48"
   id="svg11300"
   inkscape:version="0.91 r13725"
   sodipodi:docname="gimp-no-stroke.svg">
  <defs
     id="defs24" />
  <metadata
     id="metadata82">
    <rdf:RDF>
      <cc:Work
         rdf:about="">
        <dc:format>image/svg+xml</dc:format>
        <dc:type
           rdf:resource="http://purl.org/dc/dcmitype/StillImage" />
      </cc:Work>
    </rdf:RDF>
  </metadata>
  <sodipodi:namedview
     pagecolor="#ffffff"
     bordercolor="#666666"
     borderopacity="1"
     objecttolerance="10"
     gridtolerance="10"
     guidetolerance="10"
     inkscape:pageopacity="0"
     inkscape:pageshadow="2"
     inkscape:window-width="926"
     inkscape:window-height="1027"
     id="namedview80"
     showgrid="false"
     inkscape:zoom="6.9532167"
     inkscape:cx="27.141537"
     inkscape:cy="18.436026"
     inkscape:window-x="992"
     inkscape:window-y="24"
     inkscape:window-maximized="0"
     inkscape:current-layer="layer1" />
  <g
     id="layer1">
    <path
       d="m 10.536364,12.615822 c 0,0 2.96437,6.11294 9.899328,5.940486 C 34.968758,18.191702 37.517205,10.61049 37.881811,9.5166719 38.246417,8.422854 38.804309,8.5885389 38.933292,9.5994482 43.67317,52.622951 6.0392185,34.163244 4.7026683,26.835455 12.177091,24.64782 10.354061,20.454851 10.354061,20.454851 l 0.182303,-7.839029 z"
       style="color:#2c3e50;display:inline;overflow:visible;visibility:visible;fill:#756d57;fill-opacity:1;fill-rule:evenodd;stroke:#756d57;stroke-width:1;stroke-linecap:butt;stroke-linejoin:round;stroke-miterlimit:10;stroke-dasharray:none;stroke-dashoffset:0;stroke-opacity:1;marker:none"
       id="path4323"
       inkscape:connector-curvature="0" />
    <path
       d="m 16.067453,30.76413 c 6.949568,1.389973 10.488641,0.101157 12.559913,-1.498192 -0.546909,-0.706424 -1.481211,-1.481212 -1.481211,-1.481212 0,0 2.426885,0.674386 3.281453,1.777455 0.852121,1.09991 0.316399,1.777592 0.09339,3.184916 -0.49646,-1.236068 -1.423121,-1.699613 -1.548577,-2.190741 -1.862734,2.574984 -6.50359,2.468015 -12.90497,0.207774 z"
       style="color:#000000;display:inline;overflow:visible;visibility:visible;fill:#2c3e50;fill-opacity:1;fill-rule:evenodd;stroke:none;stroke-width:0.9999997;marker:none"
       id="path6480"
       inkscape:connector-curvature="0" />
    <path
       d="m 18.101974,21.822133 c 5.81e-4,2.316123 -1.876846,4.19402 -4.192969,4.19402 -2.316123,0 -4.1935509,-1.877897 -4.1929698,-4.19402 -5.811e-4,-2.316124 1.8768468,-4.19402 4.1929698,-4.19402 2.316123,0 4.19355,1.877896 4.192969,4.19402 z"
       style="color:#000000;display:inline;overflow:visible;visibility:visible;fill:#ecf0f1;fill-opacity:1;fill-rule:evenodd;stroke:#7f8c8d;stroke-width:1.03126121;stroke-linecap:butt;stroke-linejoin:miter;stroke-miterlimit:10;stroke-dasharray:none;stroke-dashoffset:0;stroke-opacity:1;marker:none"
       id="path4357"
       inkscape:connector-curvature="0" />
    <path
       d="m 9.7493397,23.401931 c 2.0322773,2.817009 2.0580513,6.2706 0.057566,7.713811 -2.0004845,1.443212 -5.269684,0.329529 -7.3019614,-2.48748 -2.03227753,-2.817009 -2.05805083,-6.2706 -0.057566,-7.713811 2.0004845,-1.443212 5.2696839,-0.329529 7.3019614,2.48748 l 0,0 z"
       style="fill:#2c3e50;fill-opacity:1;fill-rule:evenodd;stroke:#2c3e50;stroke-width:1.03126144;stroke-linecap:butt;stroke-linejoin:miter;stroke-miterlimit:10;stroke-opacity:1"
       id="path5198"
       inkscape:connector-curvature="0" />
    <path
       d="m 16.908305,22.443308 c 3.29e-4,1.115206 -0.903631,2.019433 -2.018837,2.019433 -1.115206,0 -2.019166,-0.904227 -2.018837,-2.019433 -3.29e-4,-1.115206 0.903631,-2.019433 2.018837,-2.019433 1.115206,0 2.019166,0.904227 2.018837,2.019433 l 0,0 z"
       style="color:#000000;display:inline;overflow:visible;visibility:visible;fill:#2c3e50;fill-opacity:1;fill-rule:evenodd;stroke:#4d4d4d;stroke-width:1.03126132;stroke-linecap:butt;stroke-linejoin:miter;stroke-miterlimit:10;stroke-dasharray:none;stroke-dashoffset:0;stroke-opacity:1;marker:none"
       id="path4359"
       inkscape:connector-curvature="0" />
    <path
       d="m 5.8536763,23.736305 c 2.394e-4,1.208401 -0.8160289,2.188156 -1.8230298,2.188156 -1.0070009,0 -1.8232693,-0.979755 -1.8230298,-2.188156 -2.395e-4,-1.208401 0.8160289,-2.188157 1.8230298,-2.188157 1.0070009,0 1.8232692,0.979756 1.8230298,2.188157 z"
       style="color:#000000;display:inline;overflow:visible;visibility:visible;fill:#ecf0f1;fill-opacity:1;fill-rule:evenodd;stroke:none;stroke-width:0.9999997;marker:none"
       id="path6446"
       inkscape:connector-curvature="0" />
    <path
       d="m 15.510627,21.51152 c 0,0.771904 -0.625751,1.397655 -1.397655,1.397655 -0.771904,0 -1.397655,-0.625751 -1.397655,-1.397655 0,-0.771903 0.625751,-1.397655 1.397655,-1.397655 0.771904,0 1.397655,0.625752 1.397655,1.397655 z"
       style="color:#000000;display:inline;overflow:visible;visibility:visible;fill:#ecf0f1;fill-opacity:1;fill-rule:evenodd;stroke:none;stroke-width:0.9999997;marker:none"
       id="path4361"
       inkscape:connector-curvature="0" />
    <path
       d="m 27.490566,22.277885 c 6.83e-4,2.718927 -2.203253,4.923414 -4.922179,4.923414 -2.718928,0 -4.922864,-2.204487 -4.922181,-4.923414 -6.83e-4,-2.718927 2.203253,-4.923414 4.922181,-4.923414 2.718926,0 4.922862,2.204487 4.922179,4.923414 z"
       style="color:#000000;display:inline;overflow:visible;visibility:visible;fill:#ecf0f1;fill-opacity:1;fill-rule:evenodd;stroke:#7f8c8d;stroke-width:1.03126109;stroke-linecap:butt;stroke-linejoin:miter;stroke-miterlimit:10;stroke-dasharray:none;stroke-dashoffset:0;stroke-opacity:1;marker:none"
       id="path6462"
       inkscape:connector-curvature="0" />
    <path
       d="m 26.08931,23.007094 c 3.87e-4,1.309154 -1.060784,2.370637 -2.369939,2.370637 -1.309154,0 -2.370325,-1.061483 -2.369938,-2.370637 -3.87e-4,-1.309155 1.060784,-2.370638 2.369938,-2.370638 1.309155,0 2.370326,1.061483 2.369939,2.370638 l 0,0 z"
       style="color:#000000;display:inline;overflow:visible;visibility:visible;fill:#2c3e50;fill-opacity:1;fill-rule:evenodd;stroke:#4d4d4d;stroke-width:1.03126109;stroke-linecap:butt;stroke-linejoin:miter;stroke-miterlimit:10;stroke-dasharray:none;stroke-dashoffset:0;stroke-opacity:1;marker:none"
       id="path6464"
       inkscape:connector-curvature="0" />
    <path
       d="m 24.448582,21.913275 c 0,0.906149 -0.734578,1.640727 -1.640727,1.640727 -0.906149,0 -1.640727,-0.734578 -1.640727,-1.640727 0,-0.906148 0.734578,-1.640727 1.640727,-1.640727 0.906149,0 1.640727,0.734579 1.640727,1.640727 z"
       style="color:#000000;display:inline;overflow:visible;visibility:visible;fill:#ecf0f1;fill-opacity:1;fill-rule:evenodd;stroke:none;stroke-width:0.9999997;marker:none"
       id="path6466"
       inkscape:connector-curvature="0" />
    <g
       transform="matrix(-0.11844243,-0.40205169,0.40205169,-0.11844243,25.325375,30.375727)"
       id="g8463">
      <path
         d="m -23.364209,23.568336 3.710098,3.469175 C -11.307128,20.656664 -2.5600338,6.9381374 -2.5600338,6.9381374 -0.58371893,4.6957251 -2.6769537,3.1876548 -4.7249404,4.5402186 c 0,0 -12.9703626,10.1148664 -18.6392686,19.0281174 z"
         style="color:#000000;fill:#e67e22;fill-opacity:1;fill-rule:nonzero;stroke:#2c3e50;stroke-width:2.46045303;stroke-linecap:round"
         id="path6937"
         inkscape:connector-curvature="0" />
      <path
         d="m -30.449715,32.813894 2.24632,1.93382 8.492766,-7.367031 0.275061,-0.705828 1.094405,-0.01782 c -0.4375,-1.5625 -2.941514,-4.383455 -4.816514,-4.383455 l 0.08202,1.090075 -0.669991,0.380027 -6.704066,9.070207 z"
         style="color:#000000;fill:#ecf0f1;fill-opacity:1;fill-rule:nonzero;stroke:#2c3e50;stroke-width:2.46045303;stroke-linecap:round"
         id="path6935"
         inkscape:connector-curvature="0" />
      <path
         d="m -45.341208,42.769835 c 10.443958,0 18.370039,1.24373 19.870605,-6.354738 1.209249,-6.123314 -7.210534,-9.057368 -11.38287,-3.590861 -4.019277,5.265971 -8.487735,9.945599 -8.487735,9.945599 z"
         style="color:#000000;fill:#2c3e50;fill-opacity:1;fill-rule:nonzero;stroke:none;stroke-width:0.2;marker:none"
         id="path6933"
         inkscape:connector-curvature="0" />
      <path
         d="m 8.8749989,37.75 c 1.953e-4,0.690494 -0.5595059,1.250353 -1.2499999,1.250353 -0.6904939,0 -1.2501951,-0.559859 -1.2499998,-1.250353 -1.953e-4,-0.690494 0.5595059,-1.250353 1.2499998,-1.250353 0.690494,0 1.2501952,0.559859 1.2499999,1.250353 z"
         transform="matrix(2.069903,0,0,2.069903,-44.75012,-41.50978)"
         style="color:#000000;fill:#bdc3c7;fill-opacity:1;fill-rule:nonzero;stroke:none"
         id="path6971"
         inkscape:connector-curvature="0" />
      <path
         d="m 8.8749989,37.75 c 1.953e-4,0.690494 -0.5595059,1.250353 -1.2499999,1.250353 -0.6904939,0 -1.2501951,-0.559859 -1.2499998,-1.250353 -1.953e-4,-0.690494 0.5595059,-1.250353 1.2499998,-1.250353 0.690494,0 1.2501952,0.559859 1.2499999,1.250353 z"
         transform="matrix(1.396669,0,0,1.396669,-32.05526,-25.87664)"
         style="color:#000000;fill:#ecf0f1;fill-opacity:1;fill-rule:nonzero;stroke:none;stroke-width:1;marker:none"
         id="path6983"
         inkscape:connector-curvature="0" />
      <path
         d="m -38.543723,40.909242 c 0,0 3.72152,0.0943 6.116538,-1.411995 0.847351,-0.532923 1.515774,0.649985 0.493819,1.087367 -2.207394,0.944732 -6.610357,0.324628 -6.610357,0.324628 z"
         style="color:#000000;display:inline;overflow:visible;visibility:visible;fill:#bdc3c7;fill-opacity:1;fill-rule:nonzero;stroke:none;stroke-width:1;marker:none"
         id="path1571"
         inkscape:connector-curvature="0" />
    </g>
    <path
       d="m 23.559853,32.486847 c 1.544182,0.147566 2.938712,-0.280723 3.518553,-0.488866 0.101291,-0.572748 0.553326,-1.67194 2.110052,-1.744346 l -0.546909,-0.95709 c 0,0 -2.028121,1.390059 -4.192969,1.800241 l -0.888727,1.390061 z"
       style="color:#000000;fill:#2c3e50;fill-opacity:1;fill-rule:evenodd;stroke:none;stroke-width:0.9999997;marker:none"
       id="path8532"
       inkscape:connector-curvature="0" />
  </g>
</svg>
