<?xml version="1.0" encoding="UTF-8" standalone="no"?>
<!-- Generator: Adobe Illustrator 14.0.0, SVG Export Plug-In  -->

<svg
   xmlns:dc="http://purl.org/dc/elements/1.1/"
   xmlns:cc="http://creativecommons.org/ns#"
   xmlns:rdf="http://www.w3.org/1999/02/22-rdf-syntax-ns#"
   xmlns:svg="http://www.w3.org/2000/svg"
   xmlns="http://www.w3.org/2000/svg"
   xmlns:sodipodi="http://sodipodi.sourceforge.net/DTD/sodipodi-0.dtd"
   xmlns:inkscape="http://www.inkscape.org/namespaces/inkscape"
   version="1.1"
   x="0px"
   y="0px"
   width="285px"
   height="285px"
   viewBox="-0.866 -0.866 285 285"
   enable-background="new -0.866 -0.866 285 285"
   xml:space="preserve"
   id="svg2"
   inkscape:version="0.91 r13725"
   sodipodi:docname="logo-ubuntu_cof-orange-hex-alpha.svg"><metadata
     id="metadata12"><rdf:RDF><cc:Work
         rdf:about=""><dc:format>image/svg+xml</dc:format><dc:type
           rdf:resource="http://purl.org/dc/dcmitype/StillImage" /></cc:Work></rdf:RDF></metadata><sodipodi:namedview
     pagecolor="#ffffff"
     bordercolor="#666666"
     borderopacity="1"
     objecttolerance="10"
     gridtolerance="10"
     guidetolerance="10"
     inkscape:pageopacity="0"
     inkscape:pageshadow="2"
     inkscape:window-width="1855"
     inkscape:window-height="1056"
     id="namedview10"
     showgrid="false"
     inkscape:zoom="0.82807018"
     inkscape:cx="-34.417375"
     inkscape:cy="142.5"
     inkscape:window-x="65"
     inkscape:window-y="24"
     inkscape:window-maximized="1"
     inkscape:current-layer="layer2"
     inkscape:snap-global="false" /><defs
     id="defs4" /><path
     d="M 139.31445,-7.6562e-4 C 61.037449,-7.6563e-4 -2.4160199,63.454609 -2.4160199,141.73361 c 0,78.274 63.4554219,141.73047 141.7324299,141.73047 78.277,0 141.73242,-63.45747 141.73242,-141.73047 0,-78.279001 -63.45738,-141.73437562 -141.73438,-141.73437562 z M 188.01367,39.350797 c 3.04939,0.07914 6.12141,0.89875 8.94922,2.53125 9.051,5.226 12.14983,16.794703 6.92383,25.845703 -5.223,9.047 -16.7918,12.148875 -25.8418,6.921875 -9.048,-5.223 -12.14783,-16.792844 -6.92383,-25.839844 3.59288,-6.222562 10.18393,-9.633085 16.89258,-9.458984 z m -48.69531,20.177734 c 7.609,0 14.96894,1.055235 21.96094,2.990235 1.236,7.601 5.7494,14.603859 12.9414,18.755859 7.183,4.148 15.4935,4.559797 22.6875,1.841797 13.993,13.757 23.09683,32.476308 24.42383,53.320308 l -26.9668,0.39258 c -2.483,-28.232 -26.16987,-50.373044 -55.04687,-50.373044 -8.321,0 -16.20816,1.851531 -23.28516,5.144531 L 102.88867,68.04025 c 10.982,-5.44 23.34369,-8.511719 36.42969,-8.511719 z M 93.712887,73.337125 107.54687,96.510953 C 93.335871,106.51295 84.042965,123.03066 84.042965,141.73166 c 0,18.704 9.292906,35.2207 23.503905,45.2207 l -13.835936,23.17578 c -16.560001,-11.063 -28.878141,-27.97706 -33.994141,-47.78906 5.978,-4.871 9.796875,-12.29047 9.796875,-20.60547 0,-8.317 -3.819875,-15.73542 -9.796875,-20.60742 5.117,-19.81 17.436094,-36.725065 33.996094,-47.789065 z M 42.941402,122.81173 c 10.45,0 18.919922,8.46983 18.919922,18.92383 0,10.449 -8.470922,18.91992 -18.919922,18.91992 -10.453,0 -18.923828,-8.47092 -18.923828,-18.91992 0,-10.453 8.470828,-18.92383 18.923828,-18.92383 z m 151.421878,23.82422 26.96875,0.39258 c -1.325,20.844 -10.42987,39.56231 -24.42187,53.32031 -7.194,-2.719 -15.5045,-2.30615 -22.6875,1.83985 -7.193,4.155 -11.70736,11.15876 -12.94336,18.75976 -6.993,1.935 -14.35194,2.99024 -21.96094,2.99024 -13.086,0 -25.45059,-3.07372 -36.43359,-8.51172 l 13.14843,-23.5625 c 7.078,3.293 14.96316,5.14258 23.28516,5.14258 28.877,0 52.56392,-22.1351 55.04492,-50.3711 z m -7.36523,59.64649 c 6.70849,-0.17408 13.29912,3.23526 16.89062,9.45508 5.225,9.05 2.12417,20.61779 -6.92383,25.84179 -9.051,5.225 -20.61775,2.12522 -25.84375,-6.92578 -5.223,-9.047 -2.12521,-20.61484 6.92578,-25.83984 2.8275,-1.6325 5.90186,-2.45213 8.95118,-2.53125 z"
     id="path6"
     style="fill:#dd4814;fill-opacity:1"
     inkscape:connector-curvature="0" /><g
     inkscape:groupmode="layer"
     id="layer4"
     inkscape:label="Layer 2" /><g
     inkscape:groupmode="layer"
     id="layer2"
     inkscape:label="Layer 1" /></svg>