<?xml version="1.0" encoding="UTF-8" standalone="no"?>
<!-- Created with Inkscape (http://www.inkscape.org/) -->

<svg
   xmlns:dc="http://purl.org/dc/elements/1.1/"
   xmlns:cc="http://creativecommons.org/ns#"
   xmlns:rdf="http://www.w3.org/1999/02/22-rdf-syntax-ns#"
   xmlns:svg="http://www.w3.org/2000/svg"
   xmlns="http://www.w3.org/2000/svg"
   xmlns:sodipodi="http://sodipodi.sourceforge.net/DTD/sodipodi-0.dtd"
   xmlns:inkscape="http://www.inkscape.org/namespaces/inkscape"
   width="48"
   height="48"
   id="svg2"
   version="1.1"
   inkscape:version="0.91 r13725"
   sodipodi:docname="temp.svg">
  <defs
     id="defs4">
    <inkscape:perspective
       id="perspective35"
       inkscape:persp3d-origin="150 : 100 : 1"
       inkscape:vp_z="300 : 150 : 1"
       inkscape:vp_y="0 : 1000 : 0"
       inkscape:vp_x="0 : 150 : 1"
       sodipodi:type="inkscape:persp3d" />
  </defs>
  <sodipodi:namedview
     id="base"
     pagecolor="#ffffff"
     bordercolor="#666666"
     borderopacity="1.0"
     inkscape:pageopacity="0.0"
     inkscape:pageshadow="2"
     inkscape:zoom="11.571816"
     inkscape:cx="25.05102"
     inkscape:cy="20.528568"
     inkscape:document-units="px"
     inkscape:current-layer="layer1"
     showgrid="false"
     fit-margin-top="0"
     fit-margin-left="0"
     fit-margin-right="0"
     fit-margin-bottom="0"
     inkscape:window-width="1010"
     inkscape:window-height="1027"
     inkscape:window-x="908"
     inkscape:window-y="24"
     inkscape:window-maximized="0"
     inkscape:showpageshadow="false"
     borderlayer="true" />
  <metadata
     id="metadata7">
    <rdf:RDF>
      <cc:Work
         rdf:about="">
        <dc:format>image/svg+xml</dc:format>
        <dc:type
           rdf:resource="http://purl.org/dc/dcmitype/StillImage" />
        <dc:title></dc:title>
      </cc:Work>
    </rdf:RDF>
  </metadata>
  <g
     inkscape:label="Capa 1"
     inkscape:groupmode="layer"
     id="layer1"
     transform="translate(-180.23661,-689.8125)">
    <g
       transform="matrix(0.04850531,0,0,0.04850531,178.91865,688.66501)"
       id="shadow">
      <g
         id="shape">
        <path
           style="fill:#000000;fill-opacity:0.09803922"
           inkscape:connector-curvature="0"
           id="path"
           d="m 969.65,351.3 q -8.6,-20.85 -19.4,-40.85 C 946.2,302.9 941.9,295.4 937.35,288.05 917.8,256.35 893.95,226.4 865.8,198.25 773.65,106.1 662.35,60 532,60 401.65,60 290.4,106.1 198.25,198.25 106.1,290.4 60,401.65 60,532 60,662.35 106.1,773.65 198.25,865.8 290.4,957.95 401.65,1004 532,1004 662.35,1004 773.65,957.95 865.8,865.8 916.55,815 953.35,758.4 976.15,696.05 994.7,645.2 1004,590.55 1004,532 c 0,-44.9 -5.45,-87.55 -16.4,-127.95 -1.25,-4.55 -2.55,-9.1 -3.9,-13.6 -4.1,-13.3 -8.8,-26.35 -14.05,-39.15 z" />
      </g>
    </g>
    <g
       transform="matrix(0.04850531,0,0,0.04850531,178.91865,688.66501)"
       id="criclebg">
      <g
         id="shape2">
        <path
           style="fill:#19979c;fill-opacity:1"
           inkscape:connector-curvature="0"
           id="path1"
           d="m 958.55,354.65 c -0.3,-0.75 -0.6,-1.65 -0.9,-2.55 -6.45,-18.25 -14.15,-36.05 -23.15,-53.65 -3.8,-7.4 -7.95,-14.95 -12.3,-22.4 -20.3,-34.5 -45.8,-67.2 -76.35,-97.75 C 773.4,105.85 689.1,61.85 593.05,46.4 c -0.3,-0.05 -0.6,-0.1 -0.85,-0.15 -16.25,-2.6 -32.8,-4.4 -50.05,-5.35 -9.7,-0.55 -19.85,-0.85 -30.1,-0.85 -9.35,0 -18.6,0.25 -27.9,0.75 C 365.8,46.9 263.85,92.75 178.3,178.3 121.8,234.8 82.65,298.45 60.85,369 q -20.8,67.2 -20.8,143.05 c 0,130.35 46.1,241.65 138.25,333.8 48.05,48 101.3,83.55 159.1,106.3 6.45,2.6 12.6,4.85 18.8,6.95 40.5,13.85 83.05,21.9 127.95,24.25 0.15,0 0.25,0 0.4,0 8.5,0.45 16.6,0.7 24.5,0.7 1.2,0 2.1,0 3,0 10.3,0 20.5,-0.3 30.1,-0.8 2.5,-0.15 4.75,-0.3 6.95,-0.45 20.2,-1.45 39.9,-4.05 58.7,-7.7 7.95,-1.55 15.8,-3.3 23.4,-5.15 64.7,-16.25 123.35,-45.95 176.15,-89.15 13.25,-10.9 26.05,-22.5 38.5,-34.95 48.6,-48.6 84.4,-102.5 107.35,-161.8 3.95,-10.25 7.55,-20.65 10.75,-31.15 11.7,-38.65 18.3,-79.4 19.8,-122.35 0.2,-6.05 0.3,-12.25 0.3,-18.5 0,-0.65 0,-1.35 0,-2 0,-0.35 0,-0.65 0,-1 -0.2,-40.65 -4.95,-79.5 -14.3,-117 -1.1,-4.35 -2.35,-9 -3.65,-13.6 -2.25,-7.85 -4.75,-15.8 -7.55,-23.8 z" />
      </g>
    </g>
    <g
       transform="matrix(0.04850531,0,0,0.04850531,178.91865,688.66501)"
       id="criclebg1">
      <g
         id="shape4">
        <path
           style="fill:#000000;fill-opacity:0.2"
           inkscape:connector-curvature="0"
           id="path2"
           d="m 820.25,392.05 -132.2,0 -176,152 -160,-148 -140,44 -28.55,216 328,328 c 0.2,0 0.4,0 0.55,0 q 15.25,0 30.1,-0.8 c 2.5,-0.15 4.75,-0.3 6.95,-0.45 20.2,-1.45 39.9,-4.05 58.7,-7.7 7.95,-1.55 15.8,-3.3 23.4,-5.15 64.7,-16.25 123.35,-45.95 176.15,-89.15 13.25,-10.9 26.05,-22.5 38.5,-34.95 48.6,-48.6 84.4,-102.5 107.35,-161.8 3.95,-10.25 7.55,-20.65 10.75,-31.15 9.5,-31.45 15.65,-64.3 18.45,-98.7 L 820.25,392.05 Z" />
      </g>
    </g>
    <g
       transform="matrix(0.04850531,0,0,0.04850531,178.91865,688.66501)"
       id="criclebg2">
      <g
         id="shape6">
        <path
           style="fill:none;stroke:#ffffff;stroke-width:37.29000092;stroke-linecap:round;stroke-linejoin:round;stroke-opacity:1"
           inkscape:connector-curvature="0"
           id="path3"
           d="m 734.7,598.7 0,-46 -49.85,0 49.85,0 0,-46 0,46 42.15,0" />
      </g>
    </g>
    <g
       transform="matrix(0.04850531,0,0,0.04850531,178.91865,688.66501)"
       id="Calque.__204">
      <g
         id="shape8">
        <path
           style="fill:#ffffff;fill-opacity:1"
           inkscape:connector-curvature="0"
           id="path4"
           d="m 896.85,531.45 c 0.05,-6 -0.2,-11.9 -0.8,-17.5 C 892.4,471 874.8,434 843.45,402.65 c -35.6,-35.6 -78.55,-53.35 -128.8,-53.4 -48.25,0.05 -89.8,16.3 -124.45,49.1 -0.65,0.6 -1.35,1.3 -2,1.85 l -5.05,5.05 c 0.05,0.1 0.05,0.1 -0.05,0.05 l -67.55,67.6 -72.2,-72.05 c -34.95,-33.7 -76.9,-50.5 -125.9,-50.5 -50.25,0 -93.25,17.75 -128.85,53.35 -31.15,31.15 -48.6,67.9 -52.55,110.25 -0.5,5.7 -0.7,11.65 -0.75,17.6 0,0.35 -0.05,0.6 0,1 -0.05,50.3 17.8,93.3 53.35,128.85 35.6,35.55 78.5,53.35 128.85,53.35 45.6,-0.05 85.15,-14.6 118.7,-43.85 3.45,-3 6.8,-6.2 10.1,-9.5 3.35,-3.35 6.5,-6.7 9.55,-10.2 l 60.45,-60.45 65.2,65.2 c 1.4,1.45 2.85,2.85 4.3,4.35 l 2.7,2.7 c 1.6,1.5 3.15,2.95 4.7,4.4 34.1,30.8 74.6,46.3 121.4,46.3 50.35,-0.05 93.3,-17.8 128.9,-53.35 35.55,-35.6 53.4,-78.55 53.4,-128.9 l -0.05,0 z m -82.75,0 -0.05,0.05 c 0,27.45 -9.75,50.8 -29.15,70.25 -19.45,19.4 -42.8,29.15 -70.25,29.15 -27.45,-0.05 -50.8,-9.75 -70.25,-29.15 -0.5,-0.5 -0.95,-1 -1.45,-1.5 l -68.8,-68.75 0.65,0 62.35,-62.3 c 2.15,-2.7 4.65,-5.45 7.25,-8 19.4,-19.45 42.8,-29.1 70.25,-29.15 27.45,0 50.8,9.7 70.25,29.15 15.15,15.15 24.45,32.75 27.7,52.7 1.05,5.75 1.45,11.55 1.5,17.55 z m -496.65,-98.3 c 27.45,-0.05 50.85,9.65 70.3,29.1 1.3,1.3 2.55,2.65 3.85,4.05 l 65.3,65.2 -83.9,83.75 c -16.5,11.25 -34.9,16.7 -55.5,16.65 -27.5,0.05 -50.85,-9.65 -70.3,-29.1 -19.4,-19.4 -29.1,-42.75 -29.05,-70.25 l -0.05,-0.05 c 0,-0.4 0.05,-0.65 -0.05,-1 0.15,-6 0.65,-11.9 1.6,-17.55 3.45,-19.65 12.65,-36.85 27.5,-51.7 19.45,-19.45 42.9,-29.1 70.3,-29.1 z" />
      </g>
    </g>
  </g>
</svg>
